<svg width="334" height="235" viewBox="0 0 334 235" fill="none" xmlns="http://www.w3.org/2000/svg">
<path d="M111.283 95.0552C110.963 94.2152 110.703 93.1552 110.503 91.8752C110.303 90.5952 110.183 89.2752 110.143 87.9152C110.143 86.5152 110.183 85.1752 110.263 83.8952C110.383 82.6152 110.583 81.5552 110.863 80.7152C111.503 80.4752 112.123 80.0752 112.723 79.5152C113.323 78.9152 113.823 77.9752 114.223 76.6952C114.623 75.3752 114.823 73.5352 114.823 71.1752C114.823 68.6152 114.583 66.6952 114.103 65.4152C113.663 64.0952 113.123 63.2152 112.483 62.7752C111.883 62.2952 111.343 62.0552 110.863 62.0552C110.503 61.3352 110.243 60.3552 110.083 59.1152C109.923 57.8752 109.843 56.5552 109.843 55.1552C109.883 53.7152 110.003 52.3352 110.203 51.0152C110.403 49.6552 110.703 48.4952 111.103 47.5352C112.223 47.6152 113.523 47.7352 115.003 47.8952C116.523 48.0152 118.063 48.1352 119.623 48.2552C121.223 48.3352 122.703 48.3752 124.063 48.3752C126.983 48.3752 130.043 48.3152 133.243 48.1952C136.483 48.0352 140.243 47.8152 144.523 47.5352C143.883 50.1752 143.623 52.3352 143.743 54.0152C143.903 55.6952 144.643 57.1552 145.963 58.3952C147.283 59.6352 149.323 60.9152 152.083 62.2352L152.863 60.6752C150.343 59.4752 148.503 58.3552 147.343 57.3152C146.223 56.2352 145.623 54.9552 145.543 53.4752C145.463 51.9552 145.723 49.9752 146.323 47.5352C148.043 47.5752 149.983 47.7352 152.143 48.0152C154.343 48.2952 156.843 48.4352 159.643 48.4352C162.123 48.4352 164.363 48.3352 166.363 48.1352C168.403 47.8952 170.243 47.6952 171.883 47.5352C172.243 48.4952 172.523 49.6552 172.723 51.0152C172.923 52.3352 173.023 53.7152 173.023 55.1552C173.023 56.5952 172.943 57.9352 172.783 59.1752C172.623 60.4152 172.383 61.3952 172.063 62.1152C171.583 62.1152 171.023 62.3552 170.383 62.8352C169.783 63.2752 169.263 64.1352 168.823 65.4152C168.383 66.6952 168.163 68.6152 168.163 71.1752C168.163 73.5352 168.363 75.3752 168.763 76.6952C169.163 77.9752 169.663 78.9152 170.263 79.5152C170.863 80.0752 171.483 80.4752 172.123 80.7152C172.403 81.5552 172.583 82.6152 172.663 83.8952C172.783 85.1752 172.823 86.5152 172.783 87.9152C172.783 89.2752 172.683 90.5952 172.483 91.8752C172.283 93.1552 172.023 94.2152 171.703 95.0552C170.103 94.8552 168.083 94.6352 165.643 94.3952C163.243 94.1952 160.743 94.0952 158.143 94.0952C154.783 94.0952 151.523 94.2152 148.363 94.4552C145.203 94.6952 141.783 94.8952 138.103 95.0552C138.663 92.4152 138.883 90.1952 138.763 88.3952C138.643 86.5952 138.103 85.0152 137.143 83.6552C136.183 82.2552 134.743 80.9352 132.823 79.6952L131.863 81.1352C133.583 82.2952 134.843 83.5152 135.643 84.7952C136.443 86.0352 136.863 87.4952 136.903 89.1752C136.983 90.8152 136.763 92.7752 136.243 95.0552C134.923 94.8952 133.303 94.6952 131.383 94.4552C129.503 94.2152 127.263 94.0952 124.663 94.0952C122.223 94.0952 119.783 94.2152 117.343 94.4552C114.943 94.6952 112.923 94.8952 111.283 95.0552ZM205.503 96.1352C200.743 96.1352 196.483 95.7552 192.723 94.9952C189.003 94.2352 185.963 92.8952 183.603 90.9752C181.243 89.0152 179.743 86.2752 179.103 82.7552C178.703 80.4352 178.583 78.2152 178.743 76.0952C178.903 73.9752 178.983 71.7352 178.983 69.3752C178.983 67.4152 178.783 65.9152 178.383 64.8752C178.023 63.8352 177.543 63.1152 176.943 62.7152C176.343 62.2752 175.703 62.0552 175.023 62.0552C174.663 61.3352 174.403 60.3552 174.243 59.1152C174.083 57.8752 174.003 56.5552 174.003 55.1552C174.043 53.7152 174.163 52.3352 174.363 51.0152C174.563 49.6552 174.863 48.4952 175.263 47.5352C176.383 47.6152 177.763 47.7352 179.403 47.8952C181.083 48.0152 182.883 48.1352 184.803 48.2552C186.763 48.3352 188.683 48.3752 190.563 48.3752C193.283 48.3752 195.803 48.2752 198.123 48.0752C200.443 47.8752 202.443 47.6952 204.123 47.5352C204.603 49.4152 204.863 51.6752 204.903 54.3152C204.983 56.9152 204.803 59.8552 204.363 63.1352V74.8952H206.883V63.1352C206.363 59.8552 206.163 56.9152 206.283 54.3152C206.403 51.6752 206.723 49.4152 207.243 47.5352C208.923 47.6952 210.883 47.8752 213.123 48.0752C215.403 48.2752 218.043 48.3752 221.043 48.3752C222.923 48.3752 224.823 48.3352 226.743 48.2552C228.703 48.1352 230.523 48.0152 232.203 47.8952C233.883 47.7352 235.263 47.6152 236.343 47.5352C236.743 48.4952 237.043 49.6552 237.243 51.0152C237.443 52.3352 237.543 53.7152 237.543 55.1552C237.583 56.5552 237.523 57.8752 237.363 59.1152C237.203 60.3552 236.943 61.3352 236.583 62.0552C235.583 62.0952 234.663 62.5352 233.823 63.3752C233.023 64.2152 232.623 65.8152 232.623 68.1752C232.623 70.6952 232.703 73.1152 232.863 75.4352C233.023 77.7152 232.883 79.8752 232.443 81.9152C231.643 85.5952 230.143 88.4752 227.943 90.5552C225.783 92.6352 222.863 94.0752 219.183 94.8752C215.503 95.7152 210.943 96.1352 205.503 96.1352ZM30.0381 190.055C29.7181 189.215 29.4581 188.155 29.2581 186.875C29.0581 185.595 28.9381 184.275 28.8981 182.915C28.8981 181.515 28.9381 180.175 29.0181 178.895C29.1381 177.615 29.3381 176.555 29.6181 175.715C30.8981 175.395 31.8781 174.515 32.5581 173.075C33.2381 171.595 33.5781 169.095 33.5781 165.575V161.255H31.6581C32.0181 164.295 31.9581 167.295 31.4781 170.255C29.9181 170.575 28.4381 170.795 27.0381 170.915C25.6381 170.995 24.1581 170.995 22.5981 170.915C21.0381 170.795 19.2181 170.575 17.1381 170.255C16.8981 168.855 16.7181 167.135 16.5981 165.095C16.4781 163.015 16.4181 160.835 16.4181 158.555C16.4181 156.235 16.4581 153.995 16.5381 151.835C16.6181 149.675 16.7381 147.775 16.8981 146.135C17.0581 144.455 17.2381 143.235 17.4381 142.475C19.7981 142.475 23.3581 142.635 28.1181 142.955C32.8781 143.235 38.9381 143.375 46.2981 143.375C51.2981 143.375 55.5781 143.295 59.1381 143.135C62.6981 142.975 65.6981 142.835 68.1381 142.715C70.6181 142.555 72.6581 142.475 74.2581 142.475C74.4581 143.355 74.6381 144.675 74.7981 146.435C74.9581 148.155 75.0781 150.115 75.1581 152.315C75.2381 154.475 75.2781 156.695 75.2781 158.975C75.2781 161.215 75.2181 163.335 75.0981 165.335C74.9781 167.295 74.7981 168.935 74.5581 170.255C72.4781 170.575 70.6781 170.795 69.1581 170.915C67.6381 170.995 66.1581 170.995 64.7181 170.915C63.3181 170.795 61.7181 170.575 59.9181 170.255C59.4381 167.335 59.3781 164.355 59.7381 161.315H57.8181V165.575C57.8181 167.935 58.0181 169.815 58.4181 171.215C58.8581 172.615 59.4181 173.655 60.0981 174.335C60.7781 175.015 61.5381 175.475 62.3781 175.715C62.6581 176.555 62.8381 177.615 62.9181 178.895C63.0381 180.175 63.0781 181.515 63.0381 182.915C63.0381 184.275 62.9381 185.595 62.7381 186.875C62.5381 188.155 62.2781 189.215 61.9581 190.055C60.1981 189.855 57.9781 189.635 55.2981 189.395C52.6581 189.195 49.5581 189.095 45.9981 189.095C42.2781 189.095 39.1181 189.195 36.5181 189.395C33.9581 189.635 31.7981 189.855 30.0381 190.055ZM95.2595 191.075C90.4595 191.075 86.6595 190.455 83.8595 189.215C81.0995 187.975 79.1195 186.355 77.9195 184.355C76.7195 182.355 76.1195 180.195 76.1195 177.875C76.1195 174.355 77.3595 171.495 79.8395 169.295C82.3195 167.095 86.2795 165.975 91.7195 165.935L104.44 165.815V162.635H101.14V164.255C97.0595 164.415 93.0395 164.575 89.0795 164.735C85.1195 164.895 81.1795 164.835 77.2595 164.555C76.2595 158.315 76.3595 152.275 77.5595 146.435C78.7195 146.435 80.1195 146.455 81.7595 146.495C83.4395 146.535 85.1995 146.595 87.0395 146.675C88.9195 146.715 90.7595 146.755 92.5595 146.795C94.3595 146.835 95.9595 146.875 97.3595 146.915C96.8395 148.115 96.5395 149.315 96.4595 150.515C96.4195 151.715 96.5995 152.875 96.9995 153.995C97.1995 150.675 98.4595 148.375 100.78 147.095C103.1 145.815 106.38 145.175 110.62 145.175C116.1 145.175 120.3 145.975 123.22 147.575C126.14 149.135 128.08 151.475 129.04 154.595C129.52 156.075 129.72 157.675 129.64 159.395C129.6 161.075 129.48 162.715 129.28 164.315C129.08 165.915 128.98 167.355 128.98 168.635C128.98 171.075 129.36 172.815 130.12 173.855C130.92 174.855 131.76 175.515 132.64 175.835C133 176.995 133.2 178.455 133.24 180.215C133.32 181.975 133.28 183.735 133.12 185.495C132.96 187.255 132.68 188.775 132.28 190.055C130.52 190.455 128.68 190.715 126.76 190.835C124.84 190.995 123.28 191.075 122.08 191.075C119.04 191.075 116.66 190.715 114.94 189.995C113.22 189.275 112.36 187.955 112.36 186.035C112.36 185.355 112.48 184.635 112.72 183.875C113 183.115 113.32 182.295 113.68 181.415L112.12 180.635C111.4 182.395 110.4 184.075 109.12 185.675C107.88 187.275 106.14 188.575 103.9 189.575C101.7 190.575 98.8195 191.075 95.2595 191.075ZM101.14 173.495H104.44V169.715H101.14V173.495ZM135.687 190.055C135.367 189.255 135.107 188.235 134.907 186.995C134.707 185.715 134.587 184.375 134.547 182.975C134.547 181.575 134.587 180.255 134.667 179.015C134.787 177.735 134.987 176.695 135.267 175.895C135.867 175.655 136.447 175.255 137.007 174.695C137.567 174.095 138.027 173.075 138.387 171.635C138.747 170.195 138.927 168.135 138.927 165.455C138.927 162.695 138.707 160.635 138.267 159.275C137.867 157.875 137.367 156.915 136.767 156.395C136.207 155.835 135.707 155.455 135.267 155.255C134.907 154.575 134.647 153.615 134.487 152.375C134.327 151.095 134.247 149.735 134.247 148.295C134.287 146.815 134.407 145.415 134.607 144.095C134.807 142.735 135.107 141.615 135.507 140.735C136.667 140.815 138.107 140.935 139.827 141.095C141.547 141.255 143.407 141.395 145.407 141.515C147.447 141.595 149.427 141.635 151.347 141.635C154.187 141.635 156.767 141.555 159.087 141.395C161.447 141.195 163.467 141.015 165.147 140.855C165.507 141.975 165.767 143.055 165.927 144.095C166.087 145.095 166.167 146.115 166.167 147.155C166.167 149.035 165.967 150.895 165.567 152.735C165.207 154.535 164.827 156.495 164.427 158.615C164.067 160.695 163.887 163.135 163.887 165.935C163.887 168.455 164.067 170.395 164.427 171.755C164.787 173.115 165.247 174.095 165.807 174.695C166.367 175.255 166.947 175.655 167.547 175.895C167.907 177.135 168.127 178.675 168.207 180.515C168.287 182.315 168.227 184.095 168.027 185.855C167.867 187.575 167.567 188.975 167.127 190.055C166.007 189.935 164.567 189.795 162.807 189.635C161.047 189.515 159.167 189.395 157.167 189.275C155.167 189.195 153.227 189.155 151.347 189.155C149.427 189.155 147.467 189.195 145.467 189.275C143.507 189.395 141.667 189.515 139.947 189.635C138.227 189.795 136.807 189.935 135.687 190.055ZM195.84 191.075C189.32 191.075 184 190.175 179.88 188.375C175.8 186.535 172.8 183.915 170.88 180.515C168.96 177.115 168 173.015 168 168.215C168 162.695 169.02 158.255 171.06 154.895C173.14 151.535 176.36 149.095 180.72 147.575C185.08 146.015 190.7 145.235 197.58 145.235C202.7 145.235 207.26 145.775 211.26 146.855C215.3 147.935 218.48 149.535 220.8 151.655C223.12 153.735 224.28 156.315 224.28 159.395C224.28 160.515 224.1 161.655 223.74 162.815C223.42 163.935 222.74 164.955 221.7 165.875C220.66 166.795 219.1 167.535 217.02 168.095C214.94 168.655 212.16 168.935 208.68 168.935C206.36 168.935 204.26 168.915 202.38 168.875C200.54 168.795 198.84 168.675 197.28 168.515H194.28V172.955H197.22V170.555C205.7 170.155 214.66 170.155 224.1 170.555C224.1 174.995 223.14 178.735 221.22 181.775C219.3 184.815 216.28 187.135 212.16 188.735C208.04 190.295 202.6 191.075 195.84 191.075ZM194.28 165.395H197.22V161.915H194.28V165.395ZM226.499 190.055C226.099 188.775 225.799 187.255 225.599 185.495C225.439 183.735 225.399 181.975 225.479 180.215C225.559 178.455 225.759 176.995 226.079 175.835C226.999 175.595 227.839 174.975 228.599 173.975C229.359 172.935 229.739 171.215 229.739 168.815C229.739 166.775 229.519 165.195 229.079 164.075C228.679 162.915 228.219 162.095 227.699 161.615C227.179 161.135 226.719 160.875 226.319 160.835C225.919 159.515 225.639 157.955 225.479 156.155C225.359 154.315 225.379 152.495 225.539 150.695C225.739 148.895 226.079 147.415 226.559 146.255C228.439 146.495 230.559 146.695 232.919 146.855C235.279 146.975 237.699 147.035 240.179 147.035C242.659 147.035 245.099 147.015 247.499 146.975C249.899 146.895 251.879 146.815 253.439 146.735C252.919 147.295 252.359 148.255 251.759 149.615C251.199 150.935 250.739 152.335 250.379 153.815C250.059 155.295 249.959 156.595 250.079 157.715C251.159 154.155 253.219 151.295 256.259 149.135C259.299 146.935 263.439 145.835 268.679 145.835C270.959 145.835 272.899 146.035 274.499 146.435C276.139 146.795 277.479 147.475 278.519 148.475C279.599 149.475 280.439 150.935 281.039 152.855C281.599 154.495 281.859 156.175 281.819 157.895C281.779 159.575 281.659 161.275 281.459 162.995C281.259 164.675 281.159 166.355 281.159 168.035C281.159 169.875 281.339 171.335 281.699 172.415C282.059 173.455 282.519 174.235 283.079 174.755C283.679 175.275 284.259 175.635 284.819 175.835C285.179 176.995 285.379 178.455 285.419 180.215C285.499 181.975 285.459 183.735 285.299 185.495C285.139 187.255 284.859 188.775 284.459 190.055C282.939 189.895 281.099 189.695 278.939 189.455C276.779 189.255 274.059 189.155 270.779 189.155C267.819 189.155 265.059 189.255 262.499 189.455C259.979 189.695 257.999 189.895 256.559 190.055C256.359 188.975 256.199 187.555 256.079 185.795C255.959 183.995 255.919 182.135 255.959 180.215C256.039 178.295 256.199 176.635 256.439 175.235V166.955H254.219V175.235C254.499 176.635 254.659 178.295 254.699 180.215C254.779 182.135 254.759 183.995 254.639 185.795C254.519 187.555 254.319 188.975 254.039 190.055C253.079 189.935 252.019 189.795 250.859 189.635C249.739 189.515 248.359 189.395 246.719 189.275C245.079 189.195 243.039 189.155 240.599 189.155C237.599 189.155 234.899 189.255 232.499 189.455C230.139 189.655 228.139 189.855 226.499 190.055ZM307.786 191.075C301.826 191.075 297.246 190.295 294.046 188.735C290.846 187.135 288.766 184.775 287.806 181.655C287.366 180.255 287.146 178.715 287.146 177.035C287.186 175.355 287.306 173.455 287.506 171.335C287.706 169.215 287.826 166.855 287.866 164.255H283.966C283.766 163.135 283.626 161.875 283.546 160.475C283.466 159.075 283.466 157.675 283.546 156.275C283.626 154.835 283.766 153.555 283.966 152.435C285.006 151.595 286.006 150.775 286.966 149.975C287.966 149.135 288.846 148.155 289.606 147.035C290.366 145.915 290.886 144.475 291.166 142.715C292.606 142.915 294.346 143.055 296.386 143.135C298.466 143.215 300.666 143.255 302.986 143.255C305.346 143.215 307.646 143.155 309.886 143.075C312.126 142.955 314.106 142.815 315.826 142.655C316.066 143.415 316.266 144.175 316.426 144.935C316.586 145.695 316.706 146.435 316.786 147.155H329.866C330.066 147.875 330.206 148.955 330.286 150.395C330.366 151.835 330.366 153.355 330.286 154.955C330.246 156.515 330.106 157.855 329.866 158.975L313.306 159.035V171.575H315.046L315.106 161.195C315.986 160.875 317.066 160.635 318.346 160.475C319.666 160.275 321.046 160.175 322.486 160.175C323.926 160.175 325.306 160.275 326.626 160.475C327.946 160.635 329.066 160.875 329.986 161.195C330.106 161.395 330.266 162.075 330.466 163.235C330.666 164.355 330.826 165.735 330.946 167.375C331.106 168.975 331.186 170.595 331.186 172.235C331.186 173.995 330.986 175.775 330.586 177.575C330.226 179.375 329.566 181.095 328.606 182.735C327.646 184.335 326.286 185.775 324.526 187.055C322.766 188.295 320.506 189.275 317.746 189.995C315.026 190.715 311.706 191.075 307.786 191.075Z" fill="#292304"/>
<path d="M102.757 88.02C102.437 87.18 102.177 86.12 101.977 84.84C101.777 83.56 101.657 82.24 101.617 80.88C101.617 79.48 101.657 78.14 101.737 76.86C101.857 75.58 102.057 74.52 102.337 73.68C102.977 73.44 103.597 73.04 104.197 72.48C104.797 71.88 105.297 70.94 105.697 69.66C106.097 68.34 106.297 66.5 106.297 64.14C106.297 61.58 106.057 59.66 105.577 58.38C105.137 57.06 104.597 56.18 103.957 55.74C103.357 55.26 102.817 55.02 102.337 55.02C101.977 54.3 101.717 53.32 101.557 52.08C101.397 50.84 101.317 49.52 101.317 48.12C101.357 46.68 101.477 45.3 101.677 43.98C101.877 42.62 102.177 41.46 102.577 40.5C103.697 40.58 104.997 40.7 106.477 40.86C107.997 40.98 109.537 41.1 111.097 41.22C112.697 41.3 114.177 41.34 115.537 41.34C118.457 41.34 121.517 41.28 124.717 41.16C127.957 41 131.717 40.78 135.997 40.5C135.357 43.14 135.097 45.3 135.217 46.98C135.377 48.66 136.117 50.12 137.437 51.36C138.757 52.6 140.797 53.88 143.557 55.2L144.337 53.64C141.817 52.44 139.977 51.32 138.817 50.28C137.697 49.2 137.097 47.92 137.017 46.44C136.937 44.92 137.197 42.94 137.797 40.5C139.517 40.54 141.457 40.7 143.617 40.98C145.817 41.26 148.317 41.4 151.117 41.4C153.597 41.4 155.837 41.3 157.837 41.1C159.877 40.86 161.717 40.66 163.357 40.5C163.717 41.46 163.997 42.62 164.197 43.98C164.397 45.3 164.497 46.68 164.497 48.12C164.497 49.56 164.417 50.9 164.257 52.14C164.097 53.38 163.857 54.36 163.537 55.08C163.057 55.08 162.497 55.32 161.857 55.8C161.257 56.24 160.737 57.1 160.297 58.38C159.857 59.66 159.637 61.58 159.637 64.14C159.637 66.5 159.837 68.34 160.237 69.66C160.637 70.94 161.137 71.88 161.737 72.48C162.337 73.04 162.957 73.44 163.597 73.68C163.877 74.52 164.057 75.58 164.137 76.86C164.257 78.14 164.297 79.48 164.257 80.88C164.257 82.24 164.157 83.56 163.957 84.84C163.757 86.12 163.497 87.18 163.177 88.02C161.577 87.82 159.557 87.6 157.117 87.36C154.717 87.16 152.217 87.06 149.617 87.06C146.257 87.06 142.997 87.18 139.837 87.42C136.677 87.66 133.257 87.86 129.577 88.02C130.137 85.38 130.357 83.16 130.237 81.36C130.117 79.56 129.577 77.98 128.617 76.62C127.657 75.22 126.217 73.9 124.297 72.66L123.337 74.1C125.057 75.26 126.317 76.48 127.117 77.76C127.917 79 128.337 80.46 128.377 82.14C128.457 83.78 128.237 85.74 127.717 88.02C126.397 87.86 124.777 87.66 122.857 87.42C120.977 87.18 118.737 87.06 116.137 87.06C113.697 87.06 111.257 87.18 108.817 87.42C106.417 87.66 104.397 87.86 102.757 88.02ZM196.978 89.1C192.218 89.1 187.958 88.72 184.198 87.96C180.478 87.2 177.438 85.86 175.078 83.94C172.718 81.98 171.218 79.24 170.578 75.72C170.178 73.4 170.058 71.18 170.218 69.06C170.378 66.94 170.458 64.7 170.458 62.34C170.458 60.38 170.258 58.88 169.858 57.84C169.498 56.8 169.018 56.08 168.418 55.68C167.818 55.24 167.178 55.02 166.498 55.02C166.138 54.3 165.878 53.32 165.718 52.08C165.558 50.84 165.478 49.52 165.478 48.12C165.518 46.68 165.638 45.3 165.838 43.98C166.038 42.62 166.338 41.46 166.738 40.5C167.858 40.58 169.238 40.7 170.878 40.86C172.558 40.98 174.358 41.1 176.278 41.22C178.238 41.3 180.158 41.34 182.038 41.34C184.758 41.34 187.278 41.24 189.598 41.04C191.918 40.84 193.918 40.66 195.598 40.5C196.078 42.38 196.338 44.64 196.378 47.28C196.458 49.88 196.278 52.82 195.838 56.1V67.86H198.358V56.1C197.838 52.82 197.638 49.88 197.758 47.28C197.878 44.64 198.198 42.38 198.718 40.5C200.398 40.66 202.358 40.84 204.598 41.04C206.878 41.24 209.518 41.34 212.518 41.34C214.398 41.34 216.298 41.3 218.218 41.22C220.178 41.1 221.998 40.98 223.678 40.86C225.358 40.7 226.738 40.58 227.818 40.5C228.218 41.46 228.518 42.62 228.718 43.98C228.918 45.3 229.018 46.68 229.018 48.12C229.058 49.52 228.998 50.84 228.838 52.08C228.678 53.32 228.418 54.3 228.058 55.02C227.058 55.06 226.138 55.5 225.298 56.34C224.498 57.18 224.098 58.78 224.098 61.14C224.098 63.66 224.178 66.08 224.338 68.4C224.498 70.68 224.358 72.84 223.918 74.88C223.118 78.56 221.618 81.44 219.418 83.52C217.258 85.6 214.338 87.04 210.658 87.84C206.978 88.68 202.418 89.1 196.978 89.1ZM21.5125 183.02C21.1925 182.18 20.9325 181.12 20.7325 179.84C20.5325 178.56 20.4125 177.24 20.3725 175.88C20.3725 174.48 20.4125 173.14 20.4925 171.86C20.6125 170.58 20.8125 169.52 21.0925 168.68C22.3725 168.36 23.3525 167.48 24.0325 166.04C24.7125 164.56 25.0525 162.06 25.0525 158.54V154.22H23.1325C23.4925 157.26 23.4325 160.26 22.9525 163.22C21.3925 163.54 19.9125 163.76 18.5125 163.88C17.1125 163.96 15.6325 163.96 14.0725 163.88C12.5125 163.76 10.6925 163.54 8.6125 163.22C8.3725 161.82 8.1925 160.1 8.0725 158.06C7.9525 155.98 7.8925 153.8 7.8925 151.52C7.8925 149.2 7.9325 146.96 8.0125 144.8C8.0925 142.64 8.2125 140.74 8.3725 139.1C8.5325 137.42 8.7125 136.2 8.9125 135.44C11.2725 135.44 14.8325 135.6 19.5925 135.92C24.3525 136.2 30.4125 136.34 37.7725 136.34C42.7725 136.34 47.0525 136.26 50.6125 136.1C54.1725 135.94 57.1725 135.8 59.6125 135.68C62.0925 135.52 64.1325 135.44 65.7325 135.44C65.9325 136.32 66.1125 137.64 66.2725 139.4C66.4325 141.12 66.5525 143.08 66.6325 145.28C66.7125 147.44 66.7525 149.66 66.7525 151.94C66.7525 154.18 66.6925 156.3 66.5725 158.3C66.4525 160.26 66.2725 161.9 66.0325 163.22C63.9525 163.54 62.1525 163.76 60.6325 163.88C59.1125 163.96 57.6325 163.96 56.1925 163.88C54.7925 163.76 53.1925 163.54 51.3925 163.22C50.9125 160.3 50.8525 157.32 51.2125 154.28H49.2925V158.54C49.2925 160.9 49.4925 162.78 49.8925 164.18C50.3325 165.58 50.8925 166.62 51.5725 167.3C52.2525 167.98 53.0125 168.44 53.8525 168.68C54.1325 169.52 54.3125 170.58 54.3925 171.86C54.5125 173.14 54.5525 174.48 54.5125 175.88C54.5125 177.24 54.4125 178.56 54.2125 179.84C54.0125 181.12 53.7525 182.18 53.4325 183.02C51.6725 182.82 49.4525 182.6 46.7725 182.36C44.1325 182.16 41.0325 182.06 37.4725 182.06C33.7525 182.06 30.5925 182.16 27.9925 182.36C25.4325 182.6 23.2725 182.82 21.5125 183.02ZM86.7339 184.04C81.9339 184.04 78.1339 183.42 75.3339 182.18C72.5739 180.94 70.5939 179.32 69.3939 177.32C68.1939 175.32 67.5939 173.16 67.5939 170.84C67.5939 167.32 68.8339 164.46 71.3139 162.26C73.7939 160.06 77.7539 158.94 83.1939 158.9L95.9139 158.78V155.6H92.6139V157.22C88.5339 157.38 84.5139 157.54 80.5539 157.7C76.5939 157.86 72.6539 157.8 68.7339 157.52C67.7339 151.28 67.8339 145.24 69.0339 139.4C70.1939 139.4 71.5939 139.42 73.2339 139.46C74.9139 139.5 76.6739 139.56 78.5139 139.64C80.3939 139.68 82.2339 139.72 84.0339 139.76C85.8339 139.8 87.4339 139.84 88.8339 139.88C88.3139 141.08 88.0139 142.28 87.9339 143.48C87.8939 144.68 88.0739 145.84 88.4739 146.96C88.6739 143.64 89.9339 141.34 92.2539 140.06C94.5739 138.78 97.8539 138.14 102.094 138.14C107.574 138.14 111.774 138.94 114.694 140.54C117.614 142.1 119.554 144.44 120.514 147.56C120.994 149.04 121.194 150.64 121.114 152.36C121.074 154.04 120.954 155.68 120.754 157.28C120.554 158.88 120.454 160.32 120.454 161.6C120.454 164.04 120.834 165.78 121.594 166.82C122.394 167.82 123.234 168.48 124.114 168.8C124.474 169.96 124.674 171.42 124.714 173.18C124.794 174.94 124.754 176.7 124.594 178.46C124.434 180.22 124.154 181.74 123.754 183.02C121.994 183.42 120.154 183.68 118.234 183.8C116.314 183.96 114.754 184.04 113.554 184.04C110.514 184.04 108.134 183.68 106.414 182.96C104.694 182.24 103.834 180.92 103.834 179C103.834 178.32 103.954 177.6 104.194 176.84C104.474 176.08 104.794 175.26 105.154 174.38L103.594 173.6C102.874 175.36 101.874 177.04 100.594 178.64C99.3539 180.24 97.6139 181.54 95.3739 182.54C93.1739 183.54 90.2939 184.04 86.7339 184.04ZM92.6139 166.46H95.9139V162.68H92.6139V166.46ZM127.162 183.02C126.842 182.22 126.582 181.2 126.382 179.96C126.182 178.68 126.062 177.34 126.022 175.94C126.022 174.54 126.062 173.22 126.142 171.98C126.262 170.7 126.462 169.66 126.742 168.86C127.342 168.62 127.922 168.22 128.482 167.66C129.042 167.06 129.502 166.04 129.862 164.6C130.222 163.16 130.402 161.1 130.402 158.42C130.402 155.66 130.182 153.6 129.742 152.24C129.342 150.84 128.842 149.88 128.242 149.36C127.682 148.8 127.182 148.42 126.742 148.22C126.382 147.54 126.122 146.58 125.962 145.34C125.802 144.06 125.722 142.7 125.722 141.26C125.762 139.78 125.882 138.38 126.082 137.06C126.282 135.7 126.582 134.58 126.982 133.7C128.142 133.78 129.582 133.9 131.302 134.06C133.022 134.22 134.882 134.36 136.882 134.48C138.922 134.56 140.902 134.6 142.822 134.6C145.662 134.6 148.242 134.52 150.562 134.36C152.922 134.16 154.942 133.98 156.622 133.82C156.982 134.94 157.242 136.02 157.402 137.06C157.562 138.06 157.642 139.08 157.642 140.12C157.642 142 157.442 143.86 157.042 145.7C156.682 147.5 156.302 149.46 155.902 151.58C155.542 153.66 155.362 156.1 155.362 158.9C155.362 161.42 155.542 163.36 155.902 164.72C156.262 166.08 156.722 167.06 157.282 167.66C157.842 168.22 158.422 168.62 159.022 168.86C159.382 170.1 159.602 171.64 159.682 173.48C159.762 175.28 159.702 177.06 159.502 178.82C159.342 180.54 159.042 181.94 158.602 183.02C157.482 182.9 156.042 182.76 154.282 182.6C152.522 182.48 150.642 182.36 148.642 182.24C146.642 182.16 144.702 182.12 142.822 182.12C140.902 182.12 138.942 182.16 136.942 182.24C134.982 182.36 133.142 182.48 131.422 182.6C129.702 182.76 128.282 182.9 127.162 183.02ZM187.315 184.04C180.795 184.04 175.475 183.14 171.355 181.34C167.275 179.5 164.275 176.88 162.355 173.48C160.435 170.08 159.475 165.98 159.475 161.18C159.475 155.66 160.495 151.22 162.535 147.86C164.615 144.5 167.835 142.06 172.195 140.54C176.555 138.98 182.175 138.2 189.055 138.2C194.175 138.2 198.735 138.74 202.735 139.82C206.775 140.9 209.955 142.5 212.275 144.62C214.595 146.7 215.755 149.28 215.755 152.36C215.755 153.48 215.575 154.62 215.215 155.78C214.895 156.9 214.215 157.92 213.175 158.84C212.135 159.76 210.575 160.5 208.495 161.06C206.415 161.62 203.635 161.9 200.155 161.9C197.835 161.9 195.735 161.88 193.855 161.84C192.015 161.76 190.315 161.64 188.755 161.48H185.755V165.92H188.695V163.52C197.175 163.12 206.135 163.12 215.575 163.52C215.575 167.96 214.615 171.7 212.695 174.74C210.775 177.78 207.755 180.1 203.635 181.7C199.515 183.26 194.075 184.04 187.315 184.04ZM185.755 158.36H188.695V154.88H185.755V158.36ZM217.974 183.02C217.574 181.74 217.274 180.22 217.074 178.46C216.914 176.7 216.874 174.94 216.954 173.18C217.034 171.42 217.234 169.96 217.554 168.8C218.474 168.56 219.314 167.94 220.074 166.94C220.834 165.9 221.214 164.18 221.214 161.78C221.214 159.74 220.994 158.16 220.554 157.04C220.154 155.88 219.694 155.06 219.174 154.58C218.654 154.1 218.194 153.84 217.794 153.8C217.394 152.48 217.114 150.92 216.954 149.12C216.834 147.28 216.854 145.46 217.014 143.66C217.214 141.86 217.554 140.38 218.034 139.22C219.914 139.46 222.034 139.66 224.394 139.82C226.754 139.94 229.174 140 231.654 140C234.134 140 236.574 139.98 238.974 139.94C241.374 139.86 243.354 139.78 244.914 139.7C244.394 140.26 243.834 141.22 243.234 142.58C242.674 143.9 242.214 145.3 241.854 146.78C241.534 148.26 241.434 149.56 241.554 150.68C242.634 147.12 244.694 144.26 247.734 142.1C250.774 139.9 254.914 138.8 260.154 138.8C262.434 138.8 264.374 139 265.974 139.4C267.614 139.76 268.954 140.44 269.994 141.44C271.074 142.44 271.914 143.9 272.514 145.82C273.074 147.46 273.334 149.14 273.294 150.86C273.254 152.54 273.134 154.24 272.934 155.96C272.734 157.64 272.634 159.32 272.634 161C272.634 162.84 272.814 164.3 273.174 165.38C273.534 166.42 273.994 167.2 274.554 167.72C275.154 168.24 275.734 168.6 276.294 168.8C276.654 169.96 276.854 171.42 276.894 173.18C276.974 174.94 276.934 176.7 276.774 178.46C276.614 180.22 276.334 181.74 275.934 183.02C274.414 182.86 272.574 182.66 270.414 182.42C268.254 182.22 265.534 182.12 262.254 182.12C259.294 182.12 256.534 182.22 253.974 182.42C251.454 182.66 249.474 182.86 248.034 183.02C247.834 181.94 247.674 180.52 247.554 178.76C247.434 176.96 247.394 175.1 247.434 173.18C247.514 171.26 247.674 169.6 247.914 168.2V159.92H245.694V168.2C245.974 169.6 246.134 171.26 246.174 173.18C246.254 175.1 246.234 176.96 246.114 178.76C245.994 180.52 245.794 181.94 245.514 183.02C244.554 182.9 243.494 182.76 242.334 182.6C241.214 182.48 239.834 182.36 238.194 182.24C236.554 182.16 234.514 182.12 232.074 182.12C229.074 182.12 226.374 182.22 223.974 182.42C221.614 182.62 219.614 182.82 217.974 183.02ZM299.26 184.04C293.3 184.04 288.72 183.26 285.52 181.7C282.32 180.1 280.24 177.74 279.28 174.62C278.84 173.22 278.62 171.68 278.62 170C278.66 168.32 278.78 166.42 278.98 164.3C279.18 162.18 279.3 159.82 279.34 157.22H275.44C275.24 156.1 275.1 154.84 275.02 153.44C274.94 152.04 274.94 150.64 275.02 149.24C275.1 147.8 275.24 146.52 275.44 145.4C276.48 144.56 277.48 143.74 278.44 142.94C279.44 142.1 280.32 141.12 281.08 140C281.84 138.88 282.36 137.44 282.64 135.68C284.08 135.88 285.82 136.02 287.86 136.1C289.94 136.18 292.14 136.22 294.46 136.22C296.82 136.18 299.12 136.12 301.36 136.04C303.6 135.92 305.58 135.78 307.3 135.62C307.54 136.38 307.74 137.14 307.9 137.9C308.06 138.66 308.18 139.4 308.26 140.12H321.34C321.54 140.84 321.68 141.92 321.76 143.36C321.84 144.8 321.84 146.32 321.76 147.92C321.72 149.48 321.58 150.82 321.34 151.94L304.78 152V164.54H306.52L306.58 154.16C307.46 153.84 308.54 153.6 309.82 153.44C311.14 153.24 312.52 153.14 313.96 153.14C315.4 153.14 316.78 153.24 318.1 153.44C319.42 153.6 320.54 153.84 321.46 154.16C321.58 154.36 321.74 155.04 321.94 156.2C322.14 157.32 322.3 158.7 322.42 160.34C322.58 161.94 322.66 163.56 322.66 165.2C322.66 166.96 322.46 168.74 322.06 170.54C321.7 172.34 321.04 174.06 320.08 175.7C319.12 177.3 317.76 178.74 316 180.02C314.24 181.26 311.98 182.24 309.22 182.96C306.5 183.68 303.18 184.04 299.26 184.04Z" fill="#FFD500"/>
<path d="M102.757 88.02L101.823 88.376L102.095 89.0894L102.855 89.0153L102.757 88.02ZM101.977 84.84L102.965 84.6856L102.965 84.6856L101.977 84.84ZM101.617 80.88H100.617V80.8947L100.618 80.9094L101.617 80.88ZM101.737 76.86L100.742 76.7667L100.74 76.7821L100.739 76.7976L101.737 76.86ZM102.337 73.68L101.986 72.7437L101.54 72.9112L101.389 73.3638L102.337 73.68ZM104.197 72.48L104.88 73.2111L104.892 73.1993L104.905 73.1871L104.197 72.48ZM105.697 69.66L106.652 69.9583L106.654 69.95L105.697 69.66ZM105.577 58.38L104.629 58.6962L104.635 58.7138L104.641 58.7311L105.577 58.38ZM103.957 55.74L103.333 56.5209L103.361 56.5435L103.391 56.564L103.957 55.74ZM102.337 55.02L101.443 55.4672L101.719 56.02H102.337V55.02ZM101.557 52.08L100.566 52.208L100.566 52.208L101.557 52.08ZM101.317 48.12L100.318 48.0922L100.317 48.1061V48.12H101.317ZM101.677 43.98L102.666 44.1298L102.667 44.1255L101.677 43.98ZM102.577 40.5L102.649 39.5025L101.931 39.4513L101.654 40.1154L102.577 40.5ZM106.477 40.86L106.37 41.8542L106.384 41.8558L106.399 41.8569L106.477 40.86ZM111.097 41.22L111.021 42.2171L111.034 42.2181L111.047 42.2188L111.097 41.22ZM124.717 41.16L124.755 42.1594L124.767 42.1588L124.717 41.16ZM135.997 40.5L136.969 40.7356L137.29 39.4133L135.932 39.5021L135.997 40.5ZM135.217 46.98L134.22 47.0512L134.221 47.063L134.222 47.0748L135.217 46.98ZM137.437 51.36L138.122 50.6311L138.122 50.6311L137.437 51.36ZM143.557 55.2L143.126 56.1021L144.012 56.5261L144.452 55.6472L143.557 55.2ZM144.337 53.64L145.232 54.0872L145.688 53.1754L144.767 52.7371L144.337 53.64ZM138.817 50.28L138.123 50.9998L138.136 51.0124L138.15 51.0246L138.817 50.28ZM137.017 46.44L136.019 46.4926L136.019 46.494L137.017 46.44ZM137.797 40.5L137.821 39.5003L137.018 39.4816L136.826 40.2612L137.797 40.5ZM143.617 40.98L143.489 41.9717L143.491 41.972L143.617 40.98ZM157.837 41.1L157.937 42.095L157.946 42.0942L157.954 42.0931L157.837 41.1ZM163.357 40.5L164.294 40.1489L164.024 39.4302L163.26 39.5047L163.357 40.5ZM164.197 43.98L163.208 44.1255L163.209 44.1298L164.197 43.98ZM164.257 52.14L163.266 52.012L163.266 52.012L164.257 52.14ZM163.537 55.08V56.08H164.187L164.451 55.4861L163.537 55.08ZM161.857 55.8L162.449 56.6064L162.457 56.6L161.857 55.8ZM160.297 58.38L159.352 58.0549L159.352 58.0549L160.297 58.38ZM160.237 69.66L159.28 69.95L159.283 69.9583L160.237 69.66ZM161.737 72.48L161.03 73.1871L161.043 73.1993L161.055 73.2111L161.737 72.48ZM163.597 73.68L164.546 73.3638L164.395 72.9112L163.949 72.7437L163.597 73.68ZM164.137 76.86L163.139 76.9224L163.14 76.9379L163.142 76.9533L164.137 76.86ZM164.257 80.88L163.258 80.8514L163.257 80.8657V80.88H164.257ZM163.957 84.84L162.969 84.6856L163.957 84.84ZM163.177 88.02L163.053 89.0123L163.832 89.1097L164.112 88.376L163.177 88.02ZM157.117 87.36L157.215 86.3648L157.208 86.3641L157.2 86.3635L157.117 87.36ZM139.837 87.42L139.913 88.4171L139.837 87.42ZM129.577 88.02L128.599 87.8125L128.331 89.0751L129.621 89.0191L129.577 88.02ZM130.237 81.36L129.24 81.4265L129.24 81.4265L130.237 81.36ZM128.617 76.62L127.793 77.1856L127.8 77.1967L128.617 76.62ZM124.297 72.66L124.84 71.82L124.012 71.2853L123.465 72.1053L124.297 72.66ZM123.337 74.1L122.505 73.5453L121.954 74.3729L122.778 74.9291L123.337 74.1ZM127.117 77.76L126.269 78.29L126.273 78.2961L126.277 78.3021L127.117 77.76ZM128.377 82.14L127.378 82.1638L127.378 82.1763L127.379 82.1887L128.377 82.14ZM127.717 88.02L127.597 89.0127L128.492 89.1212L128.692 88.2424L127.717 88.02ZM122.857 87.42L122.731 88.412L122.733 88.4123L122.857 87.42ZM108.817 87.42L108.72 86.4248L108.718 86.425L108.817 87.42ZM103.692 87.664C103.405 86.9108 103.159 85.9241 102.965 84.6856L100.989 84.9944C101.196 86.3159 101.47 87.4492 101.823 88.376L103.692 87.664ZM102.965 84.6856C102.772 83.449 102.656 82.1708 102.617 80.8506L100.618 80.9094C100.659 82.3092 100.783 83.671 100.989 84.9944L102.965 84.6856ZM102.617 80.88C102.617 79.4989 102.657 78.1798 102.735 76.9224L100.739 76.7976C100.658 78.1002 100.617 79.4611 100.617 80.88H102.617ZM102.733 76.9533C102.849 75.7184 103.038 74.7395 103.286 73.9962L101.389 73.3638C101.077 74.3005 100.866 75.4416 100.742 76.7667L102.733 76.9533ZM102.689 74.6163C103.473 74.322 104.203 73.843 104.88 73.2111L103.515 71.7489C102.992 72.237 102.481 72.558 101.986 72.7437L102.689 74.6163ZM104.905 73.1871C105.666 72.4252 106.229 71.312 106.652 69.9583L104.743 69.3617C104.366 70.568 103.928 71.3348 103.49 71.7729L104.905 73.1871ZM106.654 69.95C107.096 68.4924 107.297 66.539 107.297 64.14H105.297C105.297 66.461 105.099 68.1876 104.74 69.37L106.654 69.95ZM107.297 64.14C107.297 61.5459 107.058 59.4803 106.514 58.0289L104.641 58.7311C105.057 59.8396 105.297 61.6141 105.297 64.14H107.297ZM106.526 58.0638C106.065 56.6815 105.437 55.5439 104.524 54.916L103.391 56.564C103.758 56.8161 104.209 57.4385 104.629 58.6962L106.526 58.0638ZM104.582 54.9591C103.904 54.4168 103.145 54.02 102.337 54.02V56.02C102.489 56.02 102.811 56.1032 103.333 56.5209L104.582 54.9591ZM103.232 54.5728C102.942 53.9925 102.702 53.1354 102.549 51.952L100.566 52.208C100.733 53.5046 101.013 54.6075 101.443 55.4672L103.232 54.5728ZM102.549 51.952C102.395 50.7591 102.317 49.4822 102.317 48.12H100.317C100.317 49.5578 100.4 50.9209 100.566 52.208L102.549 51.952ZM102.317 48.1478C102.356 46.7455 102.473 45.4064 102.666 44.1298L100.689 43.8302C100.482 45.1936 100.359 46.6145 100.318 48.0922L102.317 48.1478ZM102.667 44.1255C102.858 42.823 103.141 41.748 103.5 40.8846L101.654 40.1154C101.214 41.172 100.897 42.417 100.688 43.8345L102.667 44.1255ZM102.506 41.4975C103.611 41.5764 104.898 41.6951 106.37 41.8542L106.585 39.8658C105.096 39.7049 103.784 39.5836 102.649 39.5025L102.506 41.4975ZM106.399 41.8569C107.919 41.9769 109.46 42.097 111.021 42.2171L111.174 40.2229C109.615 40.103 108.075 39.983 106.556 39.8631L106.399 41.8569ZM111.047 42.2188C112.661 42.2994 114.158 42.34 115.537 42.34V40.34C114.197 40.34 112.734 40.3006 111.147 40.2212L111.047 42.2188ZM115.537 42.34C118.471 42.34 121.544 42.2797 124.755 42.1593L124.68 40.1607C121.491 40.2803 118.444 40.34 115.537 40.34V42.34ZM124.767 42.1588C128.013 41.9985 131.779 41.7781 136.063 41.4979L135.932 39.5021C131.656 39.7819 127.901 40.0015 124.668 40.1612L124.767 42.1588ZM135.026 40.2644C134.374 42.9512 134.09 45.2249 134.22 47.0512L136.215 46.9088C136.105 45.3751 136.341 43.3288 136.969 40.7356L135.026 40.2644ZM134.222 47.0748C134.407 49.0155 135.27 50.6956 136.753 52.0888L138.122 50.6311C136.965 49.5444 136.348 48.3045 136.213 46.8852L134.222 47.0748ZM136.753 52.0888C138.182 53.4313 140.328 54.7639 143.126 56.1021L143.989 54.2979C141.267 52.9961 139.333 51.7687 138.122 50.6311L136.753 52.0888ZM144.452 55.6472L145.232 54.0872L143.443 53.1928L142.663 54.7528L144.452 55.6472ZM144.767 52.7371C142.277 51.5512 140.539 50.48 139.485 49.5354L138.15 51.0246C139.416 52.16 141.358 53.3288 143.907 54.5429L144.767 52.7371ZM139.512 49.5602C138.564 48.646 138.082 47.6001 138.016 46.386L136.019 46.494C136.113 48.2399 136.831 49.754 138.123 50.9998L139.512 49.5602ZM138.016 46.3874C137.943 45.0082 138.179 43.1369 138.768 40.7388L136.826 40.2612C136.216 42.7431 135.931 44.8318 136.019 46.4926L138.016 46.3874ZM137.774 41.4997C139.451 41.5387 141.355 41.6951 143.489 41.9717L143.746 39.9883C141.56 39.7049 139.584 39.5413 137.821 39.5003L137.774 41.4997ZM143.491 41.972C145.742 42.2585 148.286 42.4 151.117 42.4V40.4C148.349 40.4 145.893 40.2615 143.744 39.988L143.491 41.972ZM151.117 42.4C153.623 42.4 155.897 42.299 157.937 42.095L157.738 40.105C155.778 40.301 153.572 40.4 151.117 40.4V42.4ZM157.954 42.0931C159.989 41.8537 161.822 41.6545 163.455 41.4953L163.26 39.5047C161.612 39.6655 159.766 39.8663 157.721 40.1068L157.954 42.0931ZM162.421 40.8511C162.749 41.7266 163.015 42.8136 163.208 44.1255L165.187 43.8345C164.98 42.4264 164.685 41.1934 164.294 40.1489L162.421 40.8511ZM163.209 44.1298C163.401 45.3965 163.497 46.7263 163.497 48.12H165.497C165.497 46.6337 165.394 45.2035 165.186 43.8302L163.209 44.1298ZM163.497 48.12C163.497 49.5235 163.419 50.8203 163.266 52.012L165.249 52.268C165.415 50.9797 165.497 49.5965 165.497 48.12H163.497ZM163.266 52.012C163.112 53.2053 162.888 54.0785 162.624 54.6739L164.451 55.4861C164.827 54.6415 165.083 53.5547 165.249 52.268L163.266 52.012ZM163.537 54.08C162.739 54.08 161.965 54.4689 161.257 55L162.457 56.6C163.029 56.1711 163.376 56.08 163.537 56.08V54.08ZM161.266 54.9936C160.414 55.6182 159.811 56.7192 159.352 58.0549L161.243 58.7051C161.664 57.4808 162.1 56.8618 162.449 56.6064L161.266 54.9936ZM159.352 58.0549C158.857 59.4952 158.637 61.5496 158.637 64.14H160.637C160.637 61.6104 160.858 59.8248 161.243 58.7051L159.352 58.0549ZM158.637 64.14C158.637 66.539 158.839 68.4924 159.28 69.95L161.194 69.37C160.836 68.1876 160.637 66.461 160.637 64.14H158.637ZM159.283 69.9583C159.706 71.312 160.268 72.4252 161.03 73.1871L162.445 71.7729C162.006 71.3348 161.569 70.568 161.192 69.3617L159.283 69.9583ZM161.055 73.2111C161.732 73.843 162.462 74.322 163.246 74.6163L163.949 72.7437C163.453 72.558 162.943 72.237 162.42 71.7489L161.055 73.2111ZM162.649 73.9962C162.892 74.7264 163.063 75.6938 163.139 76.9224L165.135 76.7976C165.052 75.4662 164.863 74.3136 164.546 73.3638L162.649 73.9962ZM163.142 76.9533C163.258 78.1894 163.297 79.4885 163.258 80.8514L165.257 80.9086C165.298 79.4714 165.257 78.0906 165.133 76.7667L163.142 76.9533ZM163.257 80.88C163.257 82.1909 163.161 83.4592 162.969 84.6856L164.945 84.9944C165.154 83.6608 165.257 82.2891 165.257 80.88H163.257ZM162.969 84.6856C162.776 85.9241 162.53 86.9108 162.243 87.664L164.112 88.376C164.465 87.4492 164.739 86.3159 164.945 84.9944L162.969 84.6856ZM163.301 87.0277C161.69 86.8262 159.66 86.6053 157.215 86.3648L157.02 88.3552C159.455 88.5947 161.465 88.8138 163.053 89.0123L163.301 87.0277ZM157.2 86.3635C154.771 86.161 152.243 86.06 149.617 86.06V88.06C152.192 88.06 154.664 88.159 157.034 88.3565L157.2 86.3635ZM149.617 86.06C146.234 86.06 142.948 86.1808 139.762 86.4229L139.913 88.4171C143.046 88.1792 146.281 88.06 149.617 88.06V86.06ZM139.762 86.4229C136.614 86.6619 133.205 86.8613 129.534 87.0209L129.621 89.0191C133.31 88.8587 136.741 88.6581 139.913 88.4171L139.762 86.4229ZM130.556 88.2275C131.126 85.5374 131.364 83.2186 131.235 81.2935L129.24 81.4265C129.351 83.1014 129.149 85.2226 128.599 87.8125L130.556 88.2275ZM131.235 81.2935C131.104 79.326 130.509 77.566 129.434 76.0433L127.8 77.1967C128.646 78.394 129.131 79.794 129.24 81.4265L131.235 81.2935ZM129.442 76.0545C128.386 74.5144 126.835 73.1084 124.84 71.82L123.755 73.5C125.6 74.6916 126.929 75.9256 127.793 77.1855L129.442 76.0545ZM123.465 72.1053L122.505 73.5453L124.169 74.6547L125.129 73.2147L123.465 72.1053ZM122.778 74.9291C124.423 76.0383 125.566 77.1645 126.269 78.29L127.965 77.23C127.069 75.7955 125.692 74.4817 123.897 73.2709L122.778 74.9291ZM126.277 78.3021C126.964 79.3667 127.341 80.6418 127.378 82.1638L129.377 82.1162C129.333 80.2782 128.871 78.6332 127.958 77.2179L126.277 78.3021ZM127.379 82.1887C127.453 83.7082 127.25 85.5722 126.742 87.7976L128.692 88.2424C129.225 85.9078 129.462 83.8518 129.376 82.0913L127.379 82.1887ZM127.838 87.0273C126.519 86.8675 124.901 86.6676 122.981 86.4277L122.733 88.4123C124.654 88.6524 126.275 88.8525 127.597 89.0127L127.838 87.0273ZM122.984 86.4281C121.05 86.1811 118.765 86.06 116.137 86.06V88.06C118.709 88.06 120.905 88.1789 122.731 88.4119L122.984 86.4281ZM116.137 86.06C113.665 86.06 111.192 86.1816 108.72 86.4248L108.915 88.4152C111.323 88.1784 113.73 88.06 116.137 88.06V86.06ZM108.718 86.425C106.318 86.6649 104.299 86.8648 102.66 87.0247L102.855 89.0153C104.496 88.8552 106.516 88.6551 108.917 88.415L108.718 86.425ZM184.198 87.96L183.997 88.9398L183.999 88.9402L184.198 87.96ZM175.078 83.94L174.439 84.7093L174.446 84.7157L175.078 83.94ZM170.578 75.72L169.592 75.8899L169.594 75.8989L170.578 75.72ZM170.218 69.06L169.22 68.9847L170.218 69.06ZM169.858 57.84L168.913 58.1671L168.918 58.1831L168.924 58.199L169.858 57.84ZM168.418 55.68L167.826 56.4864L167.844 56.4996L167.863 56.512L168.418 55.68ZM166.498 55.02L165.603 55.4672L165.88 56.02H166.498V55.02ZM165.718 52.08L164.726 52.208L164.726 52.208L165.718 52.08ZM165.478 48.12L164.478 48.0922L164.478 48.1061V48.12H165.478ZM165.838 43.98L166.826 44.1298L166.827 44.1255L165.838 43.98ZM166.738 40.5L166.809 39.5025L166.091 39.4513L165.814 40.1154L166.738 40.5ZM170.878 40.86L170.78 41.8553L170.793 41.8565L170.806 41.8575L170.878 40.86ZM176.278 41.22L176.215 42.2181L176.226 42.2187L176.237 42.2192L176.278 41.22ZM195.598 40.5L196.566 40.2526L196.355 39.4234L195.503 39.5045L195.598 40.5ZM196.378 47.28L195.378 47.2951L195.378 47.303L195.378 47.3108L196.378 47.28ZM195.838 56.1L194.846 55.967L194.838 56.0332V56.1H195.838ZM195.838 67.86H194.838V68.86H195.838V67.86ZM198.358 67.86V68.86H199.358V67.86H198.358ZM198.358 56.1H199.358V56.0212L199.345 55.9434L198.358 56.1ZM197.758 47.28L198.757 47.3261L198.757 47.3254L197.758 47.28ZM198.718 40.5L198.812 39.5045L197.977 39.425L197.754 40.2334L198.718 40.5ZM204.598 41.04L204.509 42.036L204.51 42.0362L204.598 41.04ZM218.218 41.22L218.259 42.2191L218.269 42.2187L218.279 42.2181L218.218 41.22ZM223.678 40.86L223.749 41.8575L223.761 41.8566L223.772 41.8555L223.678 40.86ZM227.818 40.5L228.741 40.1154L228.463 39.4494L227.744 39.5027L227.818 40.5ZM228.718 43.98L227.728 44.1255L227.729 44.1298L228.718 43.98ZM229.018 48.12H228.018V48.1343L228.018 48.1486L229.018 48.12ZM228.838 52.08L227.846 51.952L227.846 51.952L228.838 52.08ZM228.058 55.02L228.098 56.0192L228.688 55.9956L228.952 55.4672L228.058 55.02ZM225.298 56.34L224.59 55.6329L224.582 55.6415L224.573 55.6503L225.298 56.34ZM224.338 68.4L223.34 68.4688L223.34 68.47L224.338 68.4ZM223.918 74.88L224.895 75.0924L224.895 75.0908L223.918 74.88ZM219.418 83.52L218.731 82.7933L218.724 82.7997L219.418 83.52ZM210.658 87.84L210.445 86.8628L210.435 86.8651L210.658 87.84ZM196.978 88.1C192.269 88.1 188.077 87.7239 184.396 86.9798L183.999 88.9402C187.838 89.7161 192.166 90.1 196.978 90.1V88.1ZM184.398 86.9802C180.797 86.2447 177.916 84.9604 175.709 83.1643L174.446 84.7157C176.959 86.7596 180.158 88.1553 183.997 88.9398L184.398 86.9802ZM175.716 83.1707C173.567 81.3852 172.167 78.8703 171.561 75.5411L169.594 75.8989C170.268 79.6097 171.869 82.5748 174.439 84.7093L175.716 83.1707ZM171.563 75.5501C171.176 73.3025 171.062 71.1651 171.215 69.1353L169.22 68.9847C169.054 71.1949 169.18 73.4975 169.592 75.8899L171.563 75.5501ZM171.215 69.1353C171.377 66.9877 171.458 64.7224 171.458 62.34H169.458C169.458 64.6776 169.378 66.8923 169.22 68.9847L171.215 69.1353ZM171.458 62.34C171.458 60.336 171.256 58.6913 170.791 57.481L168.924 58.199C169.259 59.0687 169.458 60.424 169.458 62.34H171.458ZM170.803 57.5129C170.407 56.3691 169.827 55.418 168.972 54.8479L167.863 56.512C168.208 56.742 168.588 57.2308 168.913 58.1671L170.803 57.5129ZM169.009 54.8736C168.254 54.3203 167.41 54.02 166.498 54.02V56.02C166.945 56.02 167.381 56.1597 167.826 56.4864L169.009 54.8736ZM167.392 54.5728C167.102 53.9925 166.862 53.1354 166.709 51.952L164.726 52.208C164.893 53.5046 165.173 54.6075 165.603 55.4672L167.392 54.5728ZM166.709 51.952C166.555 50.7591 166.478 49.4822 166.478 48.12H164.478C164.478 49.5578 164.56 50.9209 164.726 52.208L166.709 51.952ZM166.477 48.1478C166.516 46.7455 166.633 45.4064 166.826 44.1298L164.849 43.8302C164.642 45.1936 164.519 46.6145 164.478 48.0922L166.477 48.1478ZM166.827 44.1255C167.018 42.823 167.301 41.748 167.661 40.8846L165.814 40.1154C165.374 41.172 165.057 42.417 164.848 43.8345L166.827 44.1255ZM166.666 41.4975C167.775 41.5766 169.146 41.6958 170.78 41.8553L170.975 39.8647C169.33 39.7042 167.94 39.5834 166.809 39.5025L166.666 41.4975ZM170.806 41.8575C172.49 41.9777 174.293 42.0979 176.215 42.2181L176.34 40.2219C174.423 40.1021 172.625 39.9823 170.949 39.8625L170.806 41.8575ZM176.237 42.2192C178.21 42.2997 180.143 42.34 182.038 42.34V40.34C180.172 40.34 178.265 40.3003 176.318 40.2208L176.237 42.2192ZM182.038 42.34C184.782 42.34 187.331 42.2391 189.683 42.0363L189.512 40.0437C187.225 40.2409 184.734 40.34 182.038 40.34V42.34ZM189.683 42.0363C192.005 41.8361 194.009 41.6559 195.692 41.4955L195.503 39.5045C193.827 39.6641 191.83 39.8439 189.512 40.0437L189.683 42.0363ZM194.629 40.7474C195.084 42.5298 195.338 44.7075 195.378 47.2951L197.377 47.2648C197.337 44.5725 197.071 42.2302 196.566 40.2526L194.629 40.7474ZM195.378 47.3108C195.456 49.8437 195.281 52.7274 194.846 55.967L196.829 56.233C197.274 52.9126 197.459 49.9163 197.377 47.2492L195.378 47.3108ZM194.838 56.1V67.86H196.838V56.1H194.838ZM195.838 68.86H198.358V66.86H195.838V68.86ZM199.358 67.86V56.1H197.358V67.86H199.358ZM199.345 55.9434C198.833 52.7131 198.64 49.8428 198.757 47.3261L196.759 47.2339C196.635 49.9172 196.842 52.9269 197.37 56.2566L199.345 55.9434ZM198.757 47.3254C198.874 44.7357 199.187 42.5541 199.681 40.7666L197.754 40.2334C197.208 42.2059 196.881 44.5442 196.759 47.2346L198.757 47.3254ZM198.623 41.4955C200.305 41.6557 202.267 41.8359 204.509 42.036L204.687 40.044C202.448 39.8441 200.49 39.6643 198.812 39.5045L198.623 41.4955ZM204.51 42.0362C206.827 42.2394 209.497 42.34 212.518 42.34V40.34C209.538 40.34 206.929 40.2406 204.685 40.0438L204.51 42.0362ZM212.518 42.34C214.412 42.34 216.326 42.2997 218.259 42.2191L218.176 40.2209C216.27 40.3003 214.383 40.34 212.518 40.34V42.34ZM218.279 42.2181C220.242 42.098 222.065 41.9777 223.749 41.8575L223.606 39.8625C221.93 39.9823 220.114 40.102 218.156 40.2219L218.279 42.2181ZM223.772 41.8555C225.449 41.6958 226.821 41.5765 227.891 41.4973L227.744 39.5027C226.654 39.5834 225.266 39.7042 223.583 39.8645L223.772 41.8555ZM226.894 40.8846C227.254 41.748 227.537 42.823 227.728 44.1255L229.707 43.8345C229.498 42.417 229.181 41.172 228.741 40.1154L226.894 40.8846ZM227.729 44.1298C227.921 45.3965 228.018 46.7263 228.018 48.12H230.018C230.018 46.6337 229.914 45.2035 229.706 43.8302L227.729 44.1298ZM228.018 48.1486C228.057 49.5024 227.998 50.7697 227.846 51.952L229.829 52.208C229.997 50.9103 230.058 49.5376 230.017 48.0914L228.018 48.1486ZM227.846 51.952C227.693 53.1354 227.453 53.9925 227.163 54.5728L228.952 55.4672C229.382 54.6075 229.662 53.5046 229.829 52.208L227.846 51.952ZM228.018 54.0208C226.721 54.0727 225.573 54.6504 224.59 55.6329L226.005 57.0471C226.702 56.3496 227.394 56.0473 228.098 56.0192L228.018 54.0208ZM224.573 55.6503C223.485 56.793 223.098 58.7502 223.098 61.14H225.098C225.098 58.8098 225.51 57.567 226.022 57.0297L224.573 55.6503ZM223.098 61.14C223.098 63.6811 223.178 66.1241 223.34 68.4688L225.335 68.3312C225.177 66.0359 225.098 63.6389 225.098 61.14H223.098ZM223.34 68.47C223.494 70.6648 223.358 72.7297 222.94 74.6692L224.895 75.0908C225.357 72.9503 225.501 70.6952 225.335 68.33L223.34 68.47ZM222.94 74.6676C222.173 78.1991 220.752 80.8821 218.731 82.7934L220.105 84.2466C222.483 81.9979 224.062 78.9209 224.895 75.0924L222.94 74.6676ZM218.724 82.7997C216.728 84.722 213.99 86.0922 210.445 86.8628L210.87 88.8172C214.685 87.9878 217.787 86.478 220.111 84.2403L218.724 82.7997ZM210.435 86.8651C206.852 87.6829 202.372 88.1 196.978 88.1V90.1C202.463 90.1 207.103 89.6771 210.88 88.8149L210.435 86.8651ZM21.5125 183.02L20.578 183.376L20.8543 184.101L21.6254 184.014L21.5125 183.02ZM20.7325 179.84L19.7445 179.994L19.7445 179.994L20.7325 179.84ZM20.3725 175.88H19.3725V175.895L19.3729 175.909L20.3725 175.88ZM20.4925 171.86L19.4969 171.767L19.4954 171.782L19.4944 171.798L20.4925 171.86ZM21.0925 168.68L20.85 167.71L20.3174 167.843L20.1438 168.364L21.0925 168.68ZM24.0325 166.04L24.9368 166.467L24.9412 166.457L24.0325 166.04ZM25.0525 154.22H26.0525V153.22H25.0525V154.22ZM23.1325 154.22V153.22H22.0071L22.1394 154.338L23.1325 154.22ZM22.9525 163.22L23.1534 164.2L23.8292 164.061L23.9396 163.38L22.9525 163.22ZM18.5125 163.88L18.5695 164.878L18.5837 164.878L18.5979 164.876L18.5125 163.88ZM14.0725 163.88L13.9958 164.877L14.0085 164.878L14.0213 164.879L14.0725 163.88ZM8.6125 163.22L7.62687 163.389L7.74857 164.099L8.46044 164.208L8.6125 163.22ZM8.0725 158.06L7.07416 158.118L7.07422 158.119L8.0725 158.06ZM8.0125 144.8L9.01181 144.837L9.01181 144.837L8.0125 144.8ZM8.3725 139.1L9.36777 139.197L9.36799 139.195L8.3725 139.1ZM8.9125 135.44V134.44H8.14161L7.94542 135.186L8.9125 135.44ZM19.5925 135.92L19.5254 136.918L19.5338 136.918L19.5925 135.92ZM50.6125 136.1L50.6574 137.099L50.6574 137.099L50.6125 136.1ZM59.6125 135.68L59.6616 136.679L59.6693 136.678L59.6769 136.678L59.6125 135.68ZM65.7325 135.44L66.7076 135.218L66.5307 134.44H65.7325V135.44ZM66.2725 139.4L65.2766 139.491L65.2768 139.493L66.2725 139.4ZM66.6325 145.28L65.6332 145.316L65.6332 145.317L66.6325 145.28ZM66.5725 158.3L67.5706 158.361L67.5707 158.36L66.5725 158.3ZM66.0325 163.22L66.1846 164.208L66.8889 164.1L67.0164 163.399L66.0325 163.22ZM60.6325 163.88L60.6851 164.879L60.6981 164.878L60.7112 164.877L60.6325 163.88ZM56.1925 163.88L56.1071 164.876L56.122 164.878L56.137 164.878L56.1925 163.88ZM51.3925 163.22L50.4057 163.382L50.5206 164.081L51.2175 164.205L51.3925 163.22ZM51.2125 154.28L52.2056 154.398L52.3379 153.28H51.2125V154.28ZM49.2925 154.28V153.28H48.2925V154.28H49.2925ZM49.8925 164.18L48.931 164.455L48.9346 164.467L48.9385 164.48L49.8925 164.18ZM51.5725 167.3L50.8654 168.007L50.8654 168.007L51.5725 167.3ZM53.8525 168.68L54.8012 168.364L54.6344 167.863L54.1272 167.718L53.8525 168.68ZM54.3925 171.86L53.3944 171.922L53.3954 171.938L53.3969 171.953L54.3925 171.86ZM54.5125 175.88L53.5129 175.851L53.5125 175.866V175.88H54.5125ZM54.2125 179.84L55.2005 179.994L55.2005 179.994L54.2125 179.84ZM53.4325 183.02L53.3196 184.014L54.0907 184.101L54.367 183.376L53.4325 183.02ZM46.7725 182.36L46.8617 181.364L46.848 181.363L46.7725 182.36ZM27.9925 182.36L27.9158 181.363L27.9075 181.364L27.8992 181.364L27.9925 182.36ZM22.447 182.664C22.16 181.911 21.914 180.924 21.7205 179.686L19.7445 179.994C19.951 181.316 20.225 182.449 20.578 183.376L22.447 182.664ZM21.7205 179.686C21.5273 178.449 21.4109 177.171 21.3721 175.851L19.3729 175.909C19.4141 177.309 19.5377 178.671 19.7445 179.994L21.7205 179.686ZM21.3725 175.88C21.3725 174.499 21.412 173.18 21.4905 171.922L19.4944 171.798C19.413 173.1 19.3725 174.461 19.3725 175.88H21.3725ZM21.4881 171.953C21.6039 170.718 21.7934 169.74 22.0412 168.996L20.1438 168.364C19.8316 169.3 19.6211 170.442 19.4969 171.767L21.4881 171.953ZM21.335 169.65C22.9664 169.242 24.158 168.116 24.9367 166.467L23.1282 165.613C22.547 166.844 21.7786 167.478 20.85 167.71L21.335 169.65ZM24.9412 166.457C25.7186 164.765 26.0525 162.075 26.0525 158.54H24.0525C24.0525 162.045 23.7064 164.355 23.1238 165.622L24.9412 166.457ZM26.0525 158.54V154.22H24.0525V158.54H26.0525ZM25.0525 153.22H23.1325V155.22H25.0525V153.22ZM22.1394 154.338C22.4887 157.287 22.4302 160.194 21.9654 163.06L23.9396 163.38C24.4348 160.326 24.4963 157.233 24.1256 154.102L22.1394 154.338ZM22.7516 162.24C21.2248 162.554 19.7836 162.767 18.4271 162.884L18.5979 164.876C20.0414 164.753 21.5602 164.526 23.1534 164.2L22.7516 162.24ZM18.4554 162.882C17.0953 162.959 15.6516 162.96 14.1237 162.881L14.0213 164.879C15.6133 164.96 17.1297 164.961 18.5695 164.878L18.4554 162.882ZM14.1492 162.883C12.6213 162.765 10.8275 162.549 8.76455 162.232L8.46044 164.208C10.5575 164.531 12.4037 164.755 13.9958 164.877L14.1492 162.883ZM9.59812 163.051C9.36643 161.699 9.18945 160.019 9.07077 158.001L7.07422 158.119C7.19554 160.181 7.37857 161.941 7.62687 163.389L9.59812 163.051ZM9.07084 158.002C8.95204 155.943 8.8925 153.783 8.8925 151.52H6.8925C6.8925 153.817 6.95295 156.017 7.07416 158.118L9.07084 158.002ZM8.8925 151.52C8.8925 149.211 8.9323 146.984 9.01181 144.837L7.01318 144.763C6.93269 146.936 6.8925 149.189 6.8925 151.52H8.8925ZM9.01181 144.837C9.09128 142.691 9.21021 140.812 9.36777 139.197L7.37722 139.003C7.21478 140.668 7.09371 142.589 7.01318 144.763L9.01181 144.837ZM9.36799 139.195C9.5273 137.522 9.70161 136.371 9.87957 135.694L7.94542 135.186C7.72339 136.029 7.53769 137.318 7.377 139.005L9.36799 139.195ZM8.9125 136.44C11.2375 136.44 14.7701 136.598 19.5254 136.918L19.6596 134.922C14.8949 134.602 11.3075 134.44 8.9125 134.44V136.44ZM19.5338 136.918C24.3208 137.2 30.4022 137.34 37.7725 137.34V135.34C30.4228 135.34 24.3842 135.2 19.6512 134.922L19.5338 136.918ZM37.7725 137.34C42.782 137.34 47.0778 137.26 50.6574 137.099L50.5676 135.101C47.0272 135.26 42.763 135.34 37.7725 135.34V137.34ZM50.6574 137.099C54.2182 136.939 57.2197 136.799 59.6616 136.679L59.5634 134.681C57.1253 134.801 54.1268 134.941 50.5676 135.101L50.6574 137.099ZM59.6769 136.678C62.1457 136.519 64.1623 136.44 65.7325 136.44V134.44C64.1027 134.44 62.0392 134.521 59.5481 134.682L59.6769 136.678ZM64.7574 135.662C64.9422 136.475 65.1176 137.741 65.2766 139.491L67.2684 139.309C67.1074 137.539 66.9228 136.165 66.7076 135.218L64.7574 135.662ZM65.2768 139.493C65.4347 141.19 65.5537 143.13 65.6332 145.316L67.6318 145.244C67.5513 143.03 67.4303 141.05 67.2682 139.307L65.2768 139.493ZM65.6332 145.317C65.7127 147.464 65.7525 149.672 65.7525 151.94H67.7525C67.7525 149.648 67.7123 147.416 67.6318 145.243L65.6332 145.317ZM65.7525 151.94C65.7525 154.162 65.693 156.262 65.5743 158.24L67.5707 158.36C67.692 156.338 67.7525 154.198 67.7525 151.94H65.7525ZM65.5744 158.239C65.4558 160.176 65.2791 161.773 65.0486 163.041L67.0164 163.399C67.2659 162.027 67.4492 160.344 67.5706 158.361L65.5744 158.239ZM65.8804 162.232C63.8164 162.549 62.042 162.766 60.5538 162.883L60.7112 164.877C62.263 164.754 64.0886 164.531 66.1846 164.208L65.8804 162.232ZM60.5799 162.881C59.094 162.96 57.6501 162.959 56.248 162.882L56.137 164.878C57.6149 164.961 59.131 164.96 60.6851 164.879L60.5799 162.881ZM56.2779 162.884C54.9153 162.767 53.3461 162.552 51.5675 162.235L51.2175 164.205C53.0389 164.528 54.6697 164.753 56.1071 164.876L56.2779 162.884ZM52.3793 163.058C51.915 160.233 51.8562 157.348 52.2056 154.398L50.2194 154.162C49.8488 157.292 49.91 160.367 50.4057 163.382L52.3793 163.058ZM51.2125 153.28H49.2925V155.28H51.2125V153.28ZM48.2925 154.28V158.54H50.2925V154.28H48.2925ZM48.2925 158.54C48.2925 160.943 48.4946 162.928 48.931 164.455L50.854 163.905C50.4904 162.632 50.2925 160.857 50.2925 158.54H48.2925ZM48.9385 164.48C49.4036 165.96 50.0271 167.169 50.8654 168.007L52.2796 166.593C51.7578 166.071 51.2614 165.2 50.8465 163.88L48.9385 164.48ZM50.8654 168.007C51.6532 168.795 52.5583 169.35 53.5778 169.642L54.1272 167.718C53.4667 167.53 52.8518 167.165 52.2796 166.593L50.8654 168.007ZM52.9038 168.996C53.1472 169.726 53.3177 170.694 53.3944 171.922L55.3905 171.798C55.3073 170.466 55.1178 169.314 54.8012 168.364L52.9038 168.996ZM53.3969 171.953C53.5127 173.189 53.5518 174.489 53.5129 175.851L55.5121 175.909C55.5532 174.471 55.5122 173.091 55.3881 171.767L53.3969 171.953ZM53.5125 175.88C53.5125 177.191 53.4161 178.459 53.2245 179.686L55.2005 179.994C55.4089 178.661 55.5125 177.289 55.5125 175.88H53.5125ZM53.2245 179.686C53.031 180.924 52.785 181.911 52.498 182.664L54.367 183.376C54.72 182.449 54.994 181.316 55.2005 179.994L53.2245 179.686ZM53.5454 182.026C51.7746 181.825 49.546 181.604 46.8617 181.364L46.6833 183.356C49.359 183.596 51.5704 183.815 53.3196 184.014L53.5454 182.026ZM46.848 181.363C44.176 181.16 41.0497 181.06 37.4725 181.06V183.06C41.0153 183.06 44.0889 183.16 46.697 183.357L46.848 181.363ZM37.4725 181.06C33.7367 181.06 30.5495 181.16 27.9158 181.363L28.0692 183.357C30.6355 183.16 33.7683 183.06 37.4725 183.06V181.06ZM27.8992 181.364C25.3353 181.605 23.1683 181.825 21.3996 182.026L21.6254 184.014C23.3767 183.815 25.5297 183.595 28.0858 183.356L27.8992 181.364ZM75.3339 182.18L74.9241 183.092L74.929 183.094L75.3339 182.18ZM69.3939 177.32L70.2514 176.806L70.2514 176.806L69.3939 177.32ZM71.3139 162.26L70.6503 161.512L70.6503 161.512L71.3139 162.26ZM83.1939 158.9L83.2013 159.9L83.2033 159.9L83.1939 158.9ZM95.9139 158.78L95.9233 159.78L96.9139 159.771V158.78H95.9139ZM95.9139 155.6H96.9139V154.6H95.9139V155.6ZM92.6139 155.6V154.6H91.6139V155.6H92.6139ZM92.6139 157.22L92.6531 158.219L93.6139 158.182V157.22H92.6139ZM80.5539 157.7L80.5135 156.701L80.5135 156.701L80.5539 157.7ZM68.7339 157.52L67.7465 157.678L67.8719 158.461L68.6627 158.517L68.7339 157.52ZM69.0339 139.4V138.4H68.2185L68.0544 139.199L69.0339 139.4ZM73.2339 139.46L73.2095 140.46L73.2101 140.46L73.2339 139.46ZM78.5139 139.64L78.4705 140.639L78.4815 140.64L78.4926 140.64L78.5139 139.64ZM84.0339 139.76L84.0561 138.76L84.0561 138.76L84.0339 139.76ZM88.8339 139.88L89.7515 140.278L90.3386 138.923L88.8625 138.88L88.8339 139.88ZM87.9339 143.48L86.9361 143.413L86.935 143.43L86.9345 143.447L87.9339 143.48ZM88.4739 146.96L87.5322 147.296L89.4721 147.02L88.4739 146.96ZM92.2539 140.06L91.7708 139.184L91.7708 139.184L92.2539 140.06ZM114.694 140.54L114.213 141.417L114.223 141.422L114.694 140.54ZM120.514 147.56L119.558 147.854L119.56 147.861L119.563 147.869L120.514 147.56ZM121.114 152.36L120.115 152.314L120.114 152.325L120.114 152.336L121.114 152.36ZM120.754 157.28L119.762 157.156L119.762 157.156L120.754 157.28ZM121.594 166.82L120.787 167.41L120.799 167.428L120.813 167.445L121.594 166.82ZM124.114 168.8L125.069 168.504L124.922 168.03L124.456 167.86L124.114 168.8ZM124.714 173.18L123.714 173.203L123.714 173.214L123.715 173.225L124.714 173.18ZM123.754 183.02L123.976 183.995L124.537 183.868L124.708 183.318L123.754 183.02ZM118.234 183.8L118.172 182.802L118.161 182.803L118.151 182.803L118.234 183.8ZM106.414 182.96L106.8 182.038L106.8 182.038L106.414 182.96ZM104.194 176.84L103.256 176.494L103.247 176.516L103.24 176.539L104.194 176.84ZM105.154 174.38L106.079 174.759L106.431 173.9L105.601 173.486L105.154 174.38ZM103.594 173.6L104.041 172.706L103.077 172.223L102.668 173.221L103.594 173.6ZM100.594 178.64L99.813 178.015L99.8082 178.021L99.8035 178.027L100.594 178.64ZM95.3739 182.54L94.9662 181.627L94.9601 181.63L95.3739 182.54ZM92.6139 166.46H91.6139V167.46H92.6139V166.46ZM95.9139 166.46V167.46H96.9139V166.46H95.9139ZM95.9139 162.68H96.9139V161.68H95.9139V162.68ZM92.6139 162.68V161.68H91.6139V162.68H92.6139ZM86.7339 183.04C82.0027 183.04 78.3595 182.426 75.7388 181.266L74.929 183.094C77.9083 184.414 81.8651 185.04 86.7339 185.04V183.04ZM75.7437 181.268C73.115 180.087 71.319 178.585 70.2514 176.806L68.5364 177.834C69.8688 180.055 72.0328 181.793 74.9241 183.092L75.7437 181.268ZM70.2514 176.806C69.1441 174.96 68.5939 172.978 68.5939 170.84H66.5939C66.5939 173.342 67.2437 175.68 68.5364 177.834L70.2514 176.806ZM68.5939 170.84C68.5939 167.586 69.726 165.005 71.9775 163.008L70.6503 161.512C67.9418 163.915 66.5939 167.054 66.5939 170.84H68.5939ZM71.9775 163.008C74.1915 161.044 77.8584 159.939 83.2013 159.9L83.1865 157.9C77.6494 157.941 73.3963 159.076 70.6503 161.512L71.9775 163.008ZM83.2033 159.9L95.9233 159.78L95.9045 157.78L83.1845 157.9L83.2033 159.9ZM96.9139 158.78V155.6H94.9139V158.78H96.9139ZM95.9139 154.6H92.6139V156.6H95.9139V154.6ZM91.6139 155.6V157.22H93.6139V155.6H91.6139ZM92.5747 156.221C88.4943 156.381 84.4739 156.541 80.5135 156.701L80.5943 158.699C84.5539 158.539 88.5735 158.379 92.6531 158.219L92.5747 156.221ZM80.5135 156.701C76.5904 156.859 72.6877 156.8 68.8051 156.523L68.6627 158.517C72.6201 158.8 76.5974 158.861 80.5943 158.699L80.5135 156.701ZM69.7213 157.362C68.7393 151.234 68.8392 145.316 70.0134 139.601L68.0544 139.199C66.8286 145.164 66.7285 151.326 67.7465 157.678L69.7213 157.362ZM69.0339 140.4C70.1832 140.4 71.5746 140.42 73.2095 140.46L73.2583 138.46C71.6132 138.42 70.2046 138.4 69.0339 138.4V140.4ZM73.2101 140.46C74.883 140.5 76.6364 140.559 78.4705 140.639L78.5573 138.641C76.7114 138.561 74.9448 138.5 73.2577 138.46L73.2101 140.46ZM78.4926 140.64C80.3723 140.68 82.212 140.72 84.0117 140.76L84.0561 138.76C82.2558 138.72 80.4155 138.68 78.5352 138.64L78.4926 140.64ZM84.0117 140.76C85.8101 140.8 87.408 140.84 88.8053 140.88L88.8625 138.88C87.4599 138.84 85.8577 138.8 84.0561 138.76L84.0117 140.76ZM87.9163 139.482C87.3548 140.778 87.0244 142.09 86.9361 143.413L88.9317 143.547C89.0034 142.47 89.273 141.382 89.7515 140.278L87.9163 139.482ZM86.9345 143.447C86.8903 144.771 87.0894 146.057 87.5322 147.296L89.4156 146.624C89.0584 145.623 88.8975 144.589 88.9333 143.513L86.9345 143.447ZM89.4721 147.02C89.6575 143.942 90.7953 142.007 92.737 140.936L91.7708 139.184C89.0725 140.673 87.6903 143.338 87.4757 146.9L89.4721 147.02ZM92.737 140.936C94.8458 139.772 97.9317 139.14 102.094 139.14V137.14C97.7761 137.14 94.3021 137.788 91.7708 139.184L92.737 140.936ZM102.094 139.14C107.502 139.14 111.507 139.934 114.213 141.417L115.174 139.663C112.041 137.946 107.646 137.14 102.094 137.14V139.14ZM114.223 141.422C116.914 142.86 118.677 144.99 119.558 147.854L121.47 147.266C120.431 143.89 118.314 141.34 115.165 139.658L114.223 141.422ZM119.563 147.869C120.002 149.222 120.19 150.701 120.115 152.314L122.113 152.406C122.198 150.579 121.986 148.858 121.465 147.251L119.563 147.869ZM120.114 152.336C120.075 153.984 119.957 155.591 119.762 157.156L121.746 157.404C121.951 155.769 122.073 154.096 122.114 152.384L120.114 152.336ZM119.762 157.156C119.558 158.787 119.454 160.27 119.454 161.6H121.454C121.454 160.37 121.55 158.973 121.746 157.404L119.762 157.156ZM119.454 161.6C119.454 164.09 119.831 166.103 120.787 167.41L122.401 166.23C121.837 165.457 121.454 163.99 121.454 161.6H119.454ZM120.813 167.445C121.687 168.537 122.667 169.338 123.772 169.74L124.456 167.86C123.8 167.622 123.101 167.103 122.375 166.195L120.813 167.445ZM123.159 169.096C123.482 170.138 123.675 171.498 123.714 173.203L125.714 173.157C125.672 171.342 125.466 169.782 125.069 168.504L123.159 169.096ZM123.715 173.225C123.793 174.94 123.754 176.655 123.598 178.369L125.59 178.551C125.754 176.745 125.795 174.94 125.713 173.135L123.715 173.225ZM123.598 178.369C123.443 180.08 123.173 181.527 122.799 182.722L124.708 183.318C125.135 181.953 125.425 180.36 125.59 178.551L123.598 178.369ZM123.532 182.045C121.828 182.432 120.041 182.685 118.172 182.802L118.296 184.798C120.266 184.675 122.16 184.408 123.976 183.995L123.532 182.045ZM118.151 182.803C116.244 182.962 114.715 183.04 113.554 183.04V185.04C114.793 185.04 116.384 184.958 118.317 184.797L118.151 182.803ZM113.554 183.04C110.573 183.04 108.345 182.684 106.8 182.038L106.028 183.882C107.923 184.676 110.455 185.04 113.554 185.04V183.04ZM106.8 182.038C106.09 181.74 105.618 181.347 105.317 180.884C105.014 180.419 104.834 179.809 104.834 179H102.834C102.834 180.111 103.084 181.121 103.641 181.976C104.199 182.833 105.018 183.46 106.028 183.882L106.8 182.038ZM104.834 179C104.834 178.438 104.933 177.82 105.147 177.141L103.24 176.539C102.975 177.38 102.834 178.202 102.834 179H104.834ZM105.132 177.186C105.408 176.438 105.723 175.63 106.079 174.759L104.228 174.001C103.865 174.89 103.54 175.722 103.256 176.494L105.132 177.186ZM105.601 173.486L104.041 172.706L103.147 174.494L104.707 175.274L105.601 173.486ZM102.668 173.221C101.987 174.886 101.038 176.484 99.813 178.015L101.375 179.265C102.71 177.596 103.761 175.834 104.519 173.979L102.668 173.221ZM99.8035 178.027C98.6836 179.472 97.0875 180.68 94.9663 181.627L95.7816 183.453C98.1404 182.4 100.024 181.008 101.384 179.253L99.8035 178.027ZM94.9601 181.63C92.9366 182.549 90.213 183.04 86.7339 183.04V185.04C90.3748 185.04 93.4112 184.531 95.7877 183.45L94.9601 181.63ZM92.6139 167.46H95.9139V165.46H92.6139V167.46ZM96.9139 166.46V162.68H94.9139V166.46H96.9139ZM95.9139 161.68H92.6139V163.68H95.9139V161.68ZM91.6139 162.68V166.46H93.6139V162.68H91.6139ZM127.162 183.02L126.233 183.391L126.515 184.095L127.268 184.014L127.162 183.02ZM126.382 179.96L125.394 180.114L125.394 180.119L126.382 179.96ZM126.022 175.94H125.022V175.954L125.022 175.969L126.022 175.94ZM126.142 171.98L125.146 171.887L125.145 171.901L125.144 171.916L126.142 171.98ZM126.742 168.86L126.37 167.932L125.948 168.1L125.798 168.53L126.742 168.86ZM128.482 167.66L129.189 168.367L129.201 168.355L129.213 168.342L128.482 167.66ZM129.742 152.24L128.78 152.515L128.785 152.531L128.79 152.548L129.742 152.24ZM128.242 149.36L127.535 150.067L127.56 150.092L127.587 150.116L128.242 149.36ZM126.742 148.22L125.858 148.688L126.017 148.989L126.328 149.13L126.742 148.22ZM125.962 145.34L124.969 145.464L124.97 145.468L125.962 145.34ZM125.722 141.26L124.722 141.233L124.722 141.246V141.26H125.722ZM126.082 137.06L127.07 137.21L127.071 137.205L126.082 137.06ZM126.982 133.7L127.051 132.702L126.358 132.655L126.071 133.286L126.982 133.7ZM131.302 134.06L131.209 135.056L131.302 134.06ZM136.882 134.48L136.822 135.478L136.832 135.479L136.843 135.479L136.882 134.48ZM150.562 134.36L150.631 135.358L150.638 135.357L150.646 135.356L150.562 134.36ZM156.622 133.82L157.574 133.514L157.328 132.748L156.527 132.825L156.622 133.82ZM157.402 137.06L156.413 137.212L156.414 137.218L157.402 137.06ZM157.042 145.7L156.065 145.488L156.063 145.496L156.061 145.504L157.042 145.7ZM155.902 151.58L154.919 151.395L154.918 151.402L154.916 151.409L155.902 151.58ZM157.282 167.66L156.551 168.342L156.562 168.355L156.575 168.367L157.282 167.66ZM159.022 168.86L159.982 168.581L159.846 168.113L159.393 167.932L159.022 168.86ZM159.682 173.48L158.683 173.523L158.683 173.524L159.682 173.48ZM159.502 178.82L158.508 178.707L158.507 178.717L158.506 178.727L159.502 178.82ZM158.602 183.02L158.495 184.014L159.244 184.095L159.528 183.397L158.602 183.02ZM154.282 182.6L154.372 181.604L154.361 181.603L154.35 181.602L154.282 182.6ZM148.642 182.24L148.702 181.242L148.692 181.241L148.682 181.241L148.642 182.24ZM136.942 182.24L136.902 181.241L136.891 181.241L136.881 181.242L136.942 182.24ZM131.422 182.6L131.352 181.602L131.341 181.603L131.329 181.604L131.422 182.6ZM128.09 182.649C127.807 181.94 127.562 180.998 127.369 179.801L125.394 180.119C125.601 181.402 125.877 182.5 126.233 183.391L128.09 182.649ZM127.37 179.806C127.177 178.57 127.06 177.273 127.021 175.911L125.022 175.969C125.063 177.407 125.187 178.79 125.394 180.114L127.37 179.806ZM127.022 175.94C127.022 174.559 127.061 173.26 127.14 172.044L125.144 171.916C125.062 173.18 125.022 174.521 125.022 175.94H127.022ZM127.137 172.073C127.253 170.837 127.442 169.885 127.686 169.19L125.798 168.53C125.481 169.435 125.27 170.563 125.146 171.887L127.137 172.073ZM127.113 169.788C127.864 169.488 128.554 169.002 129.189 168.367L127.775 166.953C127.289 167.438 126.82 167.752 126.37 167.932L127.113 169.788ZM129.213 168.342C129.948 167.554 130.459 166.334 130.832 164.843L128.892 164.357C128.544 165.746 128.135 166.566 127.751 166.978L129.213 168.342ZM130.832 164.843C131.222 163.284 131.402 161.127 131.402 158.42H129.402C129.402 161.073 129.222 163.036 128.892 164.357L130.832 164.843ZM131.402 158.42C131.402 155.634 131.183 153.446 130.693 151.932L128.79 152.548C129.181 153.754 129.402 155.686 129.402 158.42H131.402ZM130.703 151.965C130.288 150.512 129.722 149.319 128.897 148.604L127.587 150.116C127.962 150.441 128.395 151.168 128.78 152.515L130.703 151.965ZM128.949 148.653C128.351 148.055 127.752 147.581 127.156 147.31L126.328 149.13C126.611 149.259 127.012 149.545 127.535 150.067L128.949 148.653ZM127.626 147.752C127.346 147.224 127.107 146.398 126.953 145.212L124.97 145.468C125.137 146.762 125.418 147.856 125.858 148.688L127.626 147.752ZM126.954 145.216C126.8 143.982 126.722 142.663 126.722 141.26H124.722C124.722 142.737 124.804 144.138 124.969 145.464L126.954 145.216ZM126.721 141.287C126.76 139.844 126.877 138.485 127.07 137.21L125.093 136.91C124.886 138.275 124.763 139.716 124.722 141.233L126.721 141.287ZM127.071 137.205C127.263 135.903 127.543 134.881 127.892 134.114L126.071 133.286C125.62 134.279 125.301 135.497 125.092 136.915L127.071 137.205ZM126.913 134.698C128.062 134.777 129.494 134.896 131.209 135.056L131.394 133.064C129.67 132.904 128.221 132.783 127.051 132.702L126.913 134.698ZM131.209 135.056C132.942 135.217 134.813 135.358 136.822 135.478L136.942 133.482C134.951 133.362 133.102 133.223 131.394 133.064L131.209 135.056ZM136.843 135.479C138.895 135.56 140.888 135.6 142.822 135.6V133.6C140.916 133.6 138.949 133.56 136.921 133.481L136.843 135.479ZM142.822 135.6C145.68 135.6 148.283 135.52 150.631 135.358L150.493 133.362C148.2 133.52 145.644 133.6 142.822 133.6V135.6ZM150.646 135.356C153.008 135.156 155.032 134.976 156.717 134.815L156.527 132.825C154.851 132.984 152.835 133.164 150.477 133.364L150.646 135.356ZM155.67 134.126C156.015 135.202 156.262 136.23 156.413 137.212L158.39 136.908C158.221 135.81 157.948 134.678 157.574 133.514L155.67 134.126ZM156.414 137.218C156.566 138.164 156.642 139.131 156.642 140.12H158.642C158.642 139.029 158.558 137.956 158.389 136.902L156.414 137.218ZM156.642 140.12C156.642 141.928 156.449 143.717 156.065 145.488L158.019 145.912C158.434 144.003 158.642 142.072 158.642 140.12H156.642ZM156.061 145.504C155.7 147.308 155.32 149.272 154.919 151.395L156.884 151.765C157.284 149.648 157.663 147.692 158.022 145.896L156.061 145.504ZM154.916 151.409C154.544 153.561 154.362 156.06 154.362 158.9H156.362C156.362 156.14 156.539 153.759 156.887 151.751L154.916 151.409ZM154.362 158.9C154.362 161.45 154.542 163.491 154.935 164.976L156.868 164.464C156.541 163.229 156.362 161.39 156.362 158.9H154.362ZM154.935 164.976C155.311 166.396 155.824 167.564 156.551 168.342L158.013 166.978C157.619 166.556 157.212 165.764 156.868 164.464L154.935 164.976ZM156.575 168.367C157.209 169.002 157.9 169.488 158.65 169.788L159.393 167.932C158.944 167.752 158.474 167.438 157.989 166.953L156.575 168.367ZM158.061 169.139C158.392 170.277 158.605 171.732 158.683 173.523L160.681 173.437C160.599 171.548 160.372 169.923 159.982 168.581L158.061 169.139ZM158.683 173.524C158.76 175.273 158.702 177 158.508 178.707L160.495 178.933C160.701 177.12 160.763 175.287 160.681 173.436L158.683 173.524ZM158.506 178.727C158.351 180.392 158.065 181.686 157.676 182.643L159.528 183.397C160.018 182.194 160.332 180.688 160.497 178.913L158.506 178.727ZM158.708 182.026C157.581 181.905 156.135 181.764 154.372 181.604L154.191 183.596C155.948 183.756 157.383 183.895 158.495 184.014L158.708 182.026ZM154.35 181.602C152.587 181.482 150.704 181.362 148.702 181.242L148.582 183.238C150.579 183.358 152.457 183.478 154.214 183.598L154.35 181.602ZM148.682 181.241C146.669 181.16 144.716 181.12 142.822 181.12V183.12C144.688 183.12 146.614 183.16 148.602 183.239L148.682 181.241ZM142.822 181.12C140.888 181.12 138.915 181.16 136.902 181.241L136.982 183.239C138.969 183.16 140.916 183.12 142.822 183.12V181.12ZM136.881 181.242C134.918 181.362 133.075 181.482 131.352 181.602L131.491 183.598C133.208 183.478 135.045 183.358 137.003 183.238L136.881 181.242ZM131.329 181.604C129.607 181.765 128.182 181.905 127.055 182.026L127.268 184.014C128.382 183.895 129.797 183.755 131.514 183.596L131.329 181.604ZM171.355 181.34L170.943 182.252L170.954 182.256L171.355 181.34ZM162.355 173.48L161.484 173.972L161.484 173.972L162.355 173.48ZM162.535 147.86L161.684 147.334L161.68 147.341L162.535 147.86ZM172.195 140.54L172.524 141.484L172.531 141.482L172.195 140.54ZM202.735 139.82L202.474 140.785L202.476 140.786L202.735 139.82ZM212.275 144.62L211.6 145.358L211.607 145.365L212.275 144.62ZM215.215 155.78L214.259 155.484L214.256 155.494L214.253 155.505L215.215 155.78ZM213.175 158.84L212.512 158.091L212.512 158.091L213.175 158.84ZM208.495 161.06L208.235 160.094L208.235 160.094L208.495 161.06ZM193.855 161.84L193.811 162.839L193.822 162.84L193.833 162.84L193.855 161.84ZM188.755 161.48L188.857 160.485L188.806 160.48H188.755V161.48ZM185.755 161.48V160.48H184.755V161.48H185.755ZM185.755 165.92H184.755V166.92H185.755V165.92ZM188.695 165.92V166.92H189.695V165.92H188.695ZM188.695 163.52L188.647 162.521L187.695 162.566V163.52H188.695ZM215.575 163.52H216.575V162.561L215.617 162.521L215.575 163.52ZM212.695 174.74L211.849 174.206L211.849 174.206L212.695 174.74ZM203.635 181.7L203.989 182.635L203.997 182.632L203.635 181.7ZM185.755 158.36H184.755V159.36H185.755V158.36ZM188.695 158.36V159.36H189.695V158.36H188.695ZM188.695 154.88H189.695V153.88H188.695V154.88ZM185.755 154.88V153.88H184.755V154.88H185.755ZM187.315 183.04C180.875 183.04 175.705 182.149 171.755 180.424L170.954 182.256C175.244 184.131 180.714 185.04 187.315 185.04V183.04ZM171.766 180.428C167.85 178.663 165.026 176.177 163.225 172.988L161.484 173.972C163.523 177.583 166.699 180.337 170.943 182.252L171.766 180.428ZM163.225 172.988C161.407 169.769 160.475 165.847 160.475 161.18H158.475C158.475 166.113 159.462 170.391 161.484 173.972L163.225 172.988ZM160.475 161.18C160.475 155.772 161.475 151.532 163.389 148.379L161.68 147.341C159.514 150.908 158.475 155.548 158.475 161.18H160.475ZM163.385 148.386C165.324 145.253 168.342 142.942 172.524 141.484L171.865 139.596C167.327 141.178 163.905 143.747 161.684 147.334L163.385 148.386ZM172.531 141.482C176.744 139.974 182.239 139.2 189.055 139.2V137.2C182.11 137.2 176.365 137.986 171.858 139.598L172.531 141.482ZM189.055 139.2C194.106 139.2 198.576 139.733 202.474 140.785L202.995 138.855C198.893 137.747 194.243 137.2 189.055 137.2V139.2ZM202.476 140.786C206.41 141.838 209.431 143.376 211.6 145.358L212.949 143.882C210.478 141.624 207.139 139.962 202.993 138.854L202.476 140.786ZM211.607 145.365C213.718 147.257 214.755 149.568 214.755 152.36H216.755C216.755 148.992 215.471 146.143 212.942 143.875L211.607 145.365ZM214.755 152.36C214.755 153.371 214.592 154.412 214.259 155.484L216.17 156.076C216.557 154.828 216.755 153.589 216.755 152.36H214.755ZM214.253 155.505C213.995 156.409 213.437 157.273 212.512 158.091L213.837 159.589C214.992 158.567 215.794 157.391 216.176 156.055L214.253 155.505ZM212.512 158.091C211.634 158.868 210.24 159.555 208.235 160.094L208.755 162.026C210.909 161.445 212.635 160.652 213.837 159.589L212.512 158.091ZM208.235 160.094C206.275 160.622 203.594 160.9 200.155 160.9V162.9C203.676 162.9 206.554 162.618 208.755 162.026L208.235 160.094ZM200.155 160.9C197.84 160.9 195.747 160.88 193.876 160.84L193.833 162.84C195.722 162.88 197.829 162.9 200.155 162.9V160.9ZM193.898 160.841C192.074 160.762 190.394 160.643 188.857 160.485L188.653 162.475C190.235 162.637 191.955 162.758 193.811 162.839L193.898 160.841ZM188.755 160.48H185.755V162.48H188.755V160.48ZM184.755 161.48V165.92H186.755V161.48H184.755ZM185.755 166.92H188.695V164.92H185.755V166.92ZM189.695 165.92V163.52H187.695V165.92H189.695ZM188.742 164.519C197.189 164.12 206.119 164.12 215.532 164.519L215.617 162.521C206.15 162.12 197.16 162.12 188.647 162.521L188.742 164.519ZM214.575 163.52C214.575 167.815 213.647 171.36 211.849 174.206L213.54 175.274C215.582 172.04 216.575 168.105 216.575 163.52H214.575ZM211.849 174.206C210.068 177.027 207.24 179.227 203.273 180.768L203.997 182.632C208.27 180.973 211.482 178.533 213.54 175.274L211.849 174.206ZM203.28 180.765C199.317 182.265 194.011 183.04 187.315 183.04V185.04C194.138 185.04 199.712 184.255 203.989 182.635L203.28 180.765ZM185.755 159.36H188.695V157.36H185.755V159.36ZM189.695 158.36V154.88H187.695V158.36H189.695ZM188.695 153.88H185.755V155.88H188.695V153.88ZM184.755 154.88V158.36H186.755V154.88H184.755ZM217.974 183.02L217.019 183.318L217.268 184.114L218.095 184.013L217.974 183.02ZM217.074 178.46L216.078 178.551L216.079 178.562L216.08 178.573L217.074 178.46ZM216.954 173.18L217.953 173.225L217.953 173.225L216.954 173.18ZM217.554 168.8L217.301 167.832L216.743 167.978L216.59 168.534L217.554 168.8ZM220.074 166.94L220.87 167.545L220.875 167.538L220.881 167.53L220.074 166.94ZM220.554 157.04L219.608 157.366L219.615 157.386L219.623 157.406L220.554 157.04ZM219.174 154.58L219.852 153.845L219.852 153.845L219.174 154.58ZM217.794 153.8L216.837 154.09L217.03 154.729L217.694 154.795L217.794 153.8ZM216.954 149.12L215.956 149.185L215.956 149.197L215.958 149.209L216.954 149.12ZM217.014 143.66L216.02 143.55L216.018 143.56L216.018 143.571L217.014 143.66ZM218.034 139.22L218.16 138.228L217.402 138.131L217.11 138.838L218.034 139.22ZM224.394 139.82L224.326 140.818L224.334 140.818L224.343 140.819L224.394 139.82ZM238.974 139.94L238.99 140.94L238.999 140.94L239.007 140.939L238.974 139.94ZM244.914 139.7L245.646 140.38L247.323 138.575L244.862 138.701L244.914 139.7ZM243.234 142.58L242.319 142.176L242.316 142.183L242.313 142.189L243.234 142.58ZM241.854 146.78L240.882 146.544L240.879 146.556L240.876 146.569L241.854 146.78ZM241.554 150.68L240.559 150.787L242.511 150.97L241.554 150.68ZM247.734 142.1L248.313 142.915L248.32 142.91L247.734 142.1ZM265.974 139.4L265.731 140.37L265.745 140.374L265.759 140.377L265.974 139.4ZM269.994 141.44L269.3 142.161L269.307 142.167L269.314 142.174L269.994 141.44ZM272.514 145.82L271.559 146.118L271.563 146.131L271.567 146.143L272.514 145.82ZM273.294 150.86L274.293 150.884L274.293 150.883L273.294 150.86ZM272.934 155.96L273.927 156.078L273.927 156.075L272.934 155.96ZM273.174 165.38L272.225 165.696L272.229 165.707L273.174 165.38ZM274.554 167.72L273.873 168.453L273.886 168.464L273.899 168.476L274.554 167.72ZM276.294 168.8L277.249 168.504L277.101 168.026L276.63 167.858L276.294 168.8ZM276.894 173.18L275.894 173.203L275.894 173.214L275.895 173.225L276.894 173.18ZM275.934 183.02L275.829 184.015L276.644 184.1L276.888 183.318L275.934 183.02ZM270.414 182.42L270.524 181.426L270.515 181.425L270.506 181.424L270.414 182.42ZM253.974 182.42L253.896 181.423L253.887 181.424L253.879 181.425L253.974 182.42ZM248.034 183.02L247.05 183.202L247.22 184.117L248.144 184.014L248.034 183.02ZM247.554 178.76L246.556 178.827L246.556 178.828L247.554 178.76ZM247.434 173.18L246.434 173.138L246.434 173.149L246.434 173.159L247.434 173.18ZM247.914 168.2L248.899 168.369L248.914 168.285V168.2H247.914ZM247.914 159.92H248.914V158.92H247.914V159.92ZM245.694 159.92V158.92H244.694V159.92H245.694ZM245.694 168.2H244.694V168.299L244.713 168.396L245.694 168.2ZM246.174 173.18L245.174 173.201L245.174 173.211L245.174 173.222L246.174 173.18ZM246.114 178.76L247.111 178.828L247.111 178.827L246.114 178.76ZM245.514 183.02L245.39 184.012L246.261 184.121L246.482 183.271L245.514 183.02ZM242.334 182.6L242.47 181.609L242.455 181.607L242.44 181.606L242.334 182.6ZM238.194 182.24L238.267 181.243L238.254 181.242L238.242 181.241L238.194 182.24ZM223.974 182.42L223.891 181.423L223.889 181.424L223.974 182.42ZM218.928 182.722C218.552 181.518 218.262 180.063 218.067 178.347L216.08 178.573C216.285 180.377 216.595 181.962 217.019 183.318L218.928 182.722ZM218.069 178.369C217.914 176.655 217.875 174.94 217.953 173.225L215.955 173.135C215.873 174.94 215.914 176.745 216.078 178.551L218.069 178.369ZM217.953 173.225C218.031 171.509 218.224 170.129 218.518 169.066L216.59 168.534C216.243 169.791 216.037 171.331 215.955 173.135L217.953 173.225ZM217.806 169.768C219.003 169.455 220.018 168.666 220.87 167.545L219.277 166.335C218.609 167.214 217.944 167.665 217.301 167.832L217.806 169.768ZM220.881 167.53C221.835 166.225 222.214 164.234 222.214 161.78H220.214C220.214 164.126 219.832 165.575 219.266 166.35L220.881 167.53ZM222.214 161.78C222.214 159.69 221.991 157.965 221.484 156.674L219.623 157.406C219.996 158.355 220.214 159.79 220.214 161.78H222.214ZM221.499 156.714C221.079 155.497 220.552 154.492 219.852 153.845L218.495 155.315C218.835 155.628 219.228 156.263 219.608 157.366L221.499 156.714ZM219.852 153.845C219.28 153.317 218.62 152.878 217.893 152.805L217.694 154.795C217.767 154.802 218.027 154.883 218.495 155.315L219.852 153.845ZM218.751 153.51C218.376 152.272 218.105 150.783 217.95 149.031L215.958 149.209C216.122 151.057 216.412 152.688 216.837 154.09L218.751 153.51ZM217.951 149.055C217.835 147.265 217.854 145.496 218.01 143.749L216.018 143.571C215.853 145.424 215.832 147.295 215.956 149.185L217.951 149.055ZM218.007 143.77C218.201 142.026 218.526 140.646 218.958 139.602L217.11 138.838C216.582 140.114 216.226 141.694 216.02 143.55L218.007 143.77ZM217.907 140.212C219.811 140.455 221.951 140.657 224.326 140.818L224.461 138.822C222.116 138.663 220.017 138.465 218.16 138.228L217.907 140.212ZM224.343 140.819C226.721 140.94 229.157 141 231.654 141V139C229.19 139 226.787 138.94 224.444 138.821L224.343 140.819ZM231.654 141C234.139 141 236.585 140.98 238.99 140.94L238.957 138.94C236.563 138.98 234.128 139 231.654 139V141ZM239.007 140.939C241.41 140.859 243.397 140.779 244.965 140.699L244.862 138.701C243.311 138.781 241.337 138.861 238.94 138.941L239.007 140.939ZM244.181 139.02C243.544 139.706 242.929 140.792 242.319 142.176L244.149 142.984C244.738 141.648 245.244 140.814 245.646 140.38L244.181 139.02ZM242.313 142.189C241.731 143.562 241.254 145.014 240.882 146.544L242.825 147.016C243.173 145.586 243.617 144.238 244.154 142.971L242.313 142.189ZM240.876 146.569C240.541 148.12 240.425 149.531 240.559 150.787L242.548 150.573C242.442 149.589 242.526 148.4 242.831 146.991L240.876 146.569ZM242.511 150.97C243.526 147.623 245.453 144.947 248.313 142.915L247.154 141.285C243.934 143.573 241.741 146.617 240.597 150.39L242.511 150.97ZM248.32 142.91C251.134 140.874 255.043 139.8 260.154 139.8V137.8C254.784 137.8 250.414 138.926 247.147 141.29L248.32 142.91ZM260.154 139.8C262.381 139.8 264.234 139.996 265.731 140.37L266.216 138.43C264.513 138.004 262.487 137.8 260.154 137.8V139.8ZM265.759 140.377C267.249 140.704 268.414 141.308 269.3 142.161L270.687 140.719C269.493 139.572 267.978 138.816 266.188 138.423L265.759 140.377ZM269.314 142.174C270.227 143.019 270.993 144.306 271.559 146.118L273.468 145.522C272.834 143.494 271.92 141.861 270.673 140.706L269.314 142.174ZM271.567 146.143C272.089 147.673 272.331 149.235 272.294 150.837L274.293 150.883C274.336 149.045 274.058 147.247 273.46 145.497L271.567 146.143ZM272.294 150.836C272.255 152.485 272.137 154.154 271.94 155.844L273.927 156.075C274.13 154.326 274.253 152.595 274.293 150.884L272.294 150.836ZM271.941 155.842C271.736 157.561 271.634 159.28 271.634 161H273.634C273.634 159.36 273.731 157.719 273.927 156.078L271.941 155.842ZM271.634 161C271.634 162.89 271.817 164.471 272.225 165.696L274.122 165.064C273.811 164.129 273.634 162.79 273.634 161H271.634ZM272.229 165.707C272.62 166.838 273.152 167.783 273.873 168.453L275.234 166.987C274.835 166.617 274.447 166.002 274.119 165.053L272.229 165.707ZM273.899 168.476C274.563 169.051 275.248 169.489 275.957 169.742L276.63 167.858C276.219 167.711 275.744 167.429 275.209 166.964L273.899 168.476ZM275.339 169.096C275.662 170.138 275.855 171.498 275.894 173.203L277.893 173.157C277.852 171.342 277.645 169.782 277.249 168.504L275.339 169.096ZM275.895 173.225C275.973 174.94 275.934 176.655 275.778 178.369L277.769 178.551C277.934 176.745 277.975 174.94 277.893 173.135L275.895 173.225ZM275.778 178.369C275.622 180.08 275.353 181.527 274.979 182.722L276.888 183.318C277.315 181.953 277.605 180.36 277.769 178.551L275.778 178.369ZM276.038 182.025C274.521 181.866 272.683 181.666 270.524 181.426L270.303 183.414C272.464 183.654 274.306 183.854 275.829 184.015L276.038 182.025ZM270.506 181.424C268.304 181.22 265.551 181.12 262.254 181.12V183.12C265.517 183.12 268.203 183.22 270.321 183.416L270.506 181.424ZM262.254 181.12C259.271 181.12 256.485 181.221 253.896 181.423L254.051 183.417C256.582 183.219 259.316 183.12 262.254 183.12V181.12ZM253.879 181.425C251.357 181.665 249.371 181.865 247.923 182.026L248.144 184.014C249.576 183.855 251.55 183.655 254.068 183.415L253.879 181.425ZM249.017 182.838C248.827 181.811 248.67 180.434 248.551 178.692L246.556 178.828C246.677 180.606 246.84 182.069 247.05 183.202L249.017 182.838ZM248.551 178.693C248.433 176.924 248.394 175.094 248.433 173.201L246.434 173.159C246.393 175.106 246.434 176.996 246.556 178.827L248.551 178.693ZM248.433 173.222C248.512 171.331 248.668 169.715 248.899 168.369L246.928 168.031C246.679 169.485 246.516 171.189 246.434 173.138L248.433 173.222ZM248.914 168.2V159.92H246.914V168.2H248.914ZM247.914 158.92H245.694V160.92H247.914V158.92ZM244.694 159.92V168.2H246.694V159.92H244.694ZM244.713 168.396C244.978 169.723 245.135 171.321 245.174 173.201L247.173 173.159C247.133 171.199 246.969 169.477 246.674 168.004L244.713 168.396ZM245.174 173.222C245.253 175.108 245.233 176.932 245.116 178.693L247.111 178.827C247.234 176.988 247.254 175.092 247.173 173.138L245.174 173.222ZM245.116 178.692C244.998 180.421 244.804 181.773 244.546 182.769L246.482 183.271C246.783 182.107 246.989 180.619 247.111 178.828L245.116 178.692ZM245.638 182.028C244.683 181.908 243.627 181.769 242.47 181.609L242.197 183.591C243.36 183.751 244.425 183.892 245.39 184.012L245.638 182.028ZM242.44 181.606C241.305 181.484 239.913 181.363 238.267 181.243L238.121 183.237C239.754 183.357 241.122 183.476 242.227 183.594L242.44 181.606ZM238.242 181.241C236.58 181.16 234.523 181.12 232.074 181.12V183.12C234.504 183.12 236.527 183.16 238.145 183.239L238.242 181.241ZM232.074 181.12C229.052 181.12 226.324 181.221 223.891 181.423L224.057 183.417C226.423 183.219 229.095 183.12 232.074 183.12V181.12ZM223.889 181.424C221.522 181.624 219.509 181.825 217.853 182.027L218.095 184.013C219.719 183.815 221.706 183.616 224.058 183.416L223.889 181.424ZM285.52 181.7L285.073 182.594L285.082 182.599L285.52 181.7ZM279.28 174.62L280.236 174.326L280.234 174.32L279.28 174.62ZM278.62 170L277.62 169.976L277.62 169.988V170H278.62ZM279.34 157.22L280.34 157.235L280.355 156.22H279.34V157.22ZM275.44 157.22L274.456 157.396L274.603 158.22H275.44V157.22ZM275.02 153.44L274.022 153.497L274.022 153.497L275.02 153.44ZM275.02 149.24L276.018 149.297L276.018 149.295L275.02 149.24ZM275.44 145.4L274.812 144.622L274.521 144.857L274.456 145.224L275.44 145.4ZM278.44 142.94L279.08 143.708L279.083 143.706L278.44 142.94ZM282.64 135.68L282.778 134.69L281.806 134.555L281.652 135.523L282.64 135.68ZM287.86 136.1L287.821 137.099L287.822 137.099L287.86 136.1ZM294.46 136.22V137.22H294.468L294.477 137.22L294.46 136.22ZM301.36 136.04L301.396 137.039L301.405 137.039L301.413 137.039L301.36 136.04ZM307.3 135.62L308.254 135.319L308.011 134.55L307.207 134.624L307.3 135.62ZM308.26 140.12L307.266 140.23L307.365 141.12H308.26V140.12ZM321.34 140.12L322.303 139.852L322.1 139.12H321.34V140.12ZM321.76 143.36L322.758 143.305L322.758 143.305L321.76 143.36ZM321.76 147.92L320.761 147.87L320.761 147.882L320.76 147.894L321.76 147.92ZM321.34 151.94L321.344 152.94L322.149 152.937L322.318 152.15L321.34 151.94ZM304.78 152L304.776 151L303.78 151.004V152H304.78ZM304.78 164.54H303.78V165.54H304.78V164.54ZM306.52 164.54V165.54H307.514L307.52 164.546L306.52 164.54ZM306.58 154.16L306.238 153.22L305.584 153.458L305.58 154.154L306.58 154.16ZM309.82 153.44L309.944 154.432L309.957 154.431L309.97 154.429L309.82 153.44ZM318.1 153.44L317.95 154.429L317.965 154.431L317.98 154.433L318.1 153.44ZM321.46 154.16L322.317 153.646L322.131 153.335L321.789 153.216L321.46 154.16ZM321.94 156.2L320.955 156.37L320.956 156.376L321.94 156.2ZM322.42 160.34L321.423 160.413L321.424 160.426L321.425 160.44L322.42 160.34ZM322.06 170.54L321.084 170.323L321.081 170.333L321.079 170.344L322.06 170.54ZM320.08 175.7L320.938 176.215L320.943 176.205L320.08 175.7ZM316 180.02L316.576 180.837L316.582 180.833L316.588 180.829L316 180.02ZM309.22 182.96L308.968 181.992L308.964 181.993L309.22 182.96ZM299.26 183.04C293.362 183.04 288.959 182.264 285.958 180.801L285.082 182.599C288.481 184.256 293.238 185.04 299.26 185.04V183.04ZM285.967 180.806C282.986 179.315 281.107 177.158 280.236 174.326L278.324 174.914C279.373 178.322 281.654 180.885 285.073 182.594L285.967 180.806ZM280.234 174.32C279.829 173.03 279.62 171.593 279.62 170H277.62C277.62 171.767 277.851 173.41 278.326 174.92L280.234 174.32ZM279.62 170.024C279.659 168.372 279.777 166.496 279.976 164.394L277.984 164.206C277.783 166.344 277.661 168.268 277.62 169.976L279.62 170.024ZM279.976 164.394C280.178 162.243 280.3 159.856 280.34 157.235L278.34 157.205C278.3 159.784 278.181 162.117 277.984 164.206L279.976 164.394ZM279.34 156.22H275.44V158.22H279.34V156.22ZM276.424 157.044C276.233 155.971 276.097 154.752 276.018 153.383L274.022 153.497C274.103 154.928 274.247 156.229 274.456 157.396L276.424 157.044ZM276.018 153.383C275.941 152.021 275.941 150.659 276.018 149.297L274.022 149.183C273.939 150.621 273.939 152.059 274.022 153.497L276.018 153.383ZM276.018 149.295C276.097 147.886 276.233 146.647 276.424 145.576L274.456 145.224C274.247 146.393 274.103 147.714 274.022 149.185L276.018 149.295ZM276.068 146.178C277.112 145.335 278.116 144.512 279.08 143.708L277.8 142.172C276.844 142.968 275.848 143.785 274.812 144.622L276.068 146.178ZM279.083 143.706C280.156 142.804 281.098 141.755 281.907 140.561L280.253 139.438C279.542 140.485 278.724 141.396 277.797 142.174L279.083 143.706ZM281.907 140.561C282.772 139.288 283.331 137.698 283.628 135.837L281.652 135.523C281.388 137.182 280.908 138.472 280.253 139.438L281.907 140.561ZM282.502 136.67C283.985 136.876 285.76 137.018 287.821 137.099L287.899 135.101C285.88 135.022 284.175 134.884 282.778 134.69L282.502 136.67ZM287.822 137.099C289.916 137.18 292.129 137.22 294.46 137.22V135.22C292.151 135.22 289.964 135.18 287.898 135.101L287.822 137.099ZM294.477 137.22C296.843 137.18 299.149 137.12 301.396 137.039L301.324 135.041C299.091 135.12 296.797 135.18 294.443 135.22L294.477 137.22ZM301.413 137.039C303.663 136.918 305.656 136.777 307.393 136.616L307.207 134.624C305.504 134.783 303.537 134.922 301.306 135.041L301.413 137.039ZM306.346 135.921C306.577 136.651 306.768 137.379 306.921 138.106L308.879 137.694C308.712 136.901 308.503 136.109 308.254 135.319L306.346 135.921ZM306.921 138.106C307.075 138.837 307.19 139.545 307.266 140.23L309.254 140.01C309.17 139.255 309.045 138.483 308.879 137.694L306.921 138.106ZM308.26 141.12H321.34V139.12H308.26V141.12ZM320.376 140.388C320.547 141.001 320.683 141.994 320.762 143.415L322.758 143.305C322.677 141.846 322.533 140.679 322.303 139.852L320.376 140.388ZM320.762 143.415C320.839 144.817 320.84 146.301 320.761 147.87L322.759 147.97C322.84 146.339 322.841 144.783 322.758 143.305L320.762 143.415ZM320.76 147.894C320.721 149.413 320.586 150.688 320.362 151.73L322.318 152.15C322.574 150.952 322.719 149.547 322.76 147.946L320.76 147.894ZM321.336 150.94L304.776 151L304.784 153L321.344 152.94L321.336 150.94ZM303.78 152V164.54H305.78V152H303.78ZM304.78 165.54H306.52V163.54H304.78V165.54ZM307.52 164.546L307.58 154.166L305.58 154.154L305.52 164.534L307.52 164.546ZM306.922 155.1C307.711 154.813 308.713 154.586 309.944 154.432L309.696 152.448C308.367 152.614 307.209 152.867 306.238 153.22L306.922 155.1ZM309.97 154.429C311.237 154.237 312.566 154.14 313.96 154.14V152.14C312.474 152.14 311.043 152.243 309.67 152.451L309.97 154.429ZM313.96 154.14C315.354 154.14 316.683 154.237 317.95 154.429L318.25 152.451C316.877 152.243 315.446 152.14 313.96 152.14V154.14ZM317.98 154.433C319.253 154.587 320.298 154.815 321.131 155.104L321.789 153.216C320.782 152.865 319.587 152.613 318.22 152.447L317.98 154.433ZM320.602 154.674C320.57 154.621 320.575 154.61 320.605 154.703C320.629 154.78 320.66 154.893 320.697 155.049C320.77 155.361 320.856 155.798 320.955 156.37L322.925 156.03C322.824 155.442 322.73 154.959 322.643 154.591C322.6 154.407 322.556 154.24 322.51 154.097C322.47 153.97 322.41 153.799 322.317 153.646L320.602 154.674ZM320.956 156.376C321.147 157.45 321.304 158.794 321.423 160.413L323.417 160.267C323.296 158.606 323.133 157.19 322.924 156.024L320.956 156.376ZM321.425 160.44C321.582 162.006 321.66 163.593 321.66 165.2H323.66C323.66 163.527 323.578 161.874 323.415 160.24L321.425 160.44ZM321.66 165.2C321.66 166.884 321.469 168.591 321.084 170.323L323.036 170.757C323.451 168.889 323.66 167.036 323.66 165.2H321.66ZM321.079 170.344C320.742 172.031 320.123 173.647 319.217 175.195L320.943 176.205C321.957 174.473 322.658 172.649 323.041 170.736L321.079 170.344ZM319.222 175.186C318.342 176.653 317.081 177.997 315.412 179.211L316.588 180.829C318.439 179.483 319.898 177.947 320.937 176.214L319.222 175.186ZM315.424 179.203C313.788 180.355 311.647 181.293 308.968 181.992L309.472 183.928C312.313 183.187 314.692 182.165 316.576 180.837L315.424 179.203ZM308.964 181.993C306.353 182.684 303.125 183.04 299.26 183.04V185.04C303.235 185.04 306.647 184.676 309.476 183.927L308.964 181.993Z" fill="black"/>
</svg>
